<?xml version="1.0" encoding="utf-8"?>
<!-- Generator: Adobe Illustrator 24.2.1, SVG Export Plug-In . SVG Version: 6.00 Build 0)  -->
<svg version="1.1" id="Camada_1" xmlns="http://www.w3.org/2000/svg" xmlns:xlink="http://www.w3.org/1999/xlink" x="0px" y="0px"
	 viewBox="0 0 402.86 110.41" style="enable-background:new 0 0 402.86 110.41;" xml:space="preserve">
<style type="text/css">
	.st0{fill:#D1D1D1;}
</style>
<g>
	<path class="st0" d="M76.83,101.95c0.11-0.79,0.14-0.82,0.85-0.86c0.26-0.01,0.53,0.05,0.79-0.07c0-0.22-0.17-0.17-0.28-0.18
		c-0.77-0.07-0.78-0.07-0.73-0.86c0.02-0.28-0.08-0.4-0.35-0.4c-0.03,0-0.05,0-0.08,0c-1.88-0.21-2.48-0.9-2.49-2.8
		c0-1.44-0.01-2.88,0-4.31c0.01-1.44,0.77-2.34,2.19-2.44c1.19-0.08,2.4-0.05,3.6-0.03c0.53,0.01,0.67,0.19,0.67,0.68
		c0,0.49-0.15,0.69-0.65,0.71c-0.83,0.03-1.65,0.01-2.48,0.02c-0.35,0-0.69-0.01-1.04,0.02c-0.55,0.05-0.73,0.26-0.79,0.82
		c-0.01,0.05-0.01,0.11-0.01,0.16c0,1.57-0.01,3.14,0,4.71c0.01,0.79,0.21,0.99,1.01,1.01c1.07,0.02,2.13-0.01,3.2,0.03
		c0.62,0.02,0.8,0.28,0.76,0.87c-0.03,0.35-0.2,0.54-0.55,0.55c-0.29,0.01-0.59,0-0.88,0.02c-0.25,0.01-0.52-0.07-0.77,0.1
		c1.09,0.72,1.23,1.27,0.59,2.27C78.54,101.95,77.68,101.95,76.83,101.95z"/>
	<path class="st0" d="M262.36,68.4c0.11-0.26-0.06-0.47-0.14-0.68c-0.54-1.55-0.8-3.14-0.8-4.78c0.01-10.63,0.01-21.27,0.01-31.9
		c0-1.35,0-1.35,1.38-1.35c1.57,0,3.15,0,4.72,0c0.16,0,0.32,0,0.48,0c1.4,0.04,1.79,0.43,1.79,1.85c0,10.47,0,20.95,0,31.42
		c0,0.53-0.03,1.07,0.1,1.59c0.52,2.08,1.89,3.28,3.94,3.75c0.57,0.13,1.16,0.18,1.75,0.18c3.84-0.01,7.68,0,11.52-0.01
		c1.53,0,2.97-0.31,4.18-1.32c1.03-0.87,1.6-1.97,1.69-3.32c0.02-0.37,0.01-0.75,0.01-1.12c0-10.21,0-20.41,0-30.62
		c0-0.27-0.01-0.53,0-0.8c0.04-1.12,0.43-1.57,1.56-1.58c2.29-0.02,4.59-0.1,6.88,0.05c0.32,0.02,0.64,0.02,0.96,0.02
		c3.23-0.01,6.45-0.08,9.68-0.06c7.15,0.04,14.29,0.08,21.44,0.05c6-0.02,12,4.4,13.29,11.15c0.2,1.02,0.28,2.06,0.28,3.1
		c0,6.05,0,12.1,0,18.15c0,1.99-0.27,3.93-1,5.79c-0.26,0.66-0.21,0.71,0.51,0.73c0.13,0,0.27,0,0.4,0c12.53,0,25.07,0.01,37.6,0.01
		c0.69,0,1.38,0.01,2.06-0.2c1.11-0.34,1.85-1.06,1.91-2.21c0.1-2.18,0.21-4.37-0.08-6.54c-0.12-0.93-0.63-1.69-1.32-2.32
		c-0.63-0.58-1.37-0.89-2.25-0.87c-1.39,0.02-2.77,0.01-4.16,0.01c-5.07,0-10.13-0.01-15.2-0.01c-2.62,0-5.09-0.58-7.29-2.02
		c-2.65-1.73-4.38-4.1-4.89-7.27c-0.03-0.18-0.06-0.37-0.06-0.56c0-2.26-0.11-4.54,0.02-6.79c0.16-2.7,1.4-4.95,3.37-6.78
		c2.46-2.28,5.43-3.31,8.76-3.31c10.05-0.01,20.11-0.02,30.16-0.03c1.52,0,1.42-0.07,1.42,1.45c0,1.84,0.01,3.68,0,5.52
		c0,0.84-0.06,0.9-0.92,0.91c-0.99,0.01-1.97,0-2.96,0c-9.2,0-18.4-0.01-27.6-0.01c-0.67,0-1.33-0.01-1.98,0.18
		c-1.37,0.4-2.06,1.25-2.08,2.66c-0.02,1.63,0.01,3.25-0.01,4.88c-0.03,1.9,1.63,3.96,3.99,3.94c6.53-0.04,13.07-0.04,19.6,0
		c3.7,0.02,6.87,1.4,9.39,4.13c1.77,1.91,2.68,4.2,2.69,6.83c0.01,1.63-0.01,3.25,0,4.88c0.02,3.82-1.64,6.76-4.69,8.97
		c-2.2,1.59-4.7,2.35-7.41,2.41c-0.43,0.01-0.85,0.01-1.28,0.01c-14.11,0-28.21-0.02-42.32,0.01c-8.13,0.02-16.26,0.19-24.4,0.13
		c-0.99-0.01-1.03,0.03-1.03,1.04c0,6.74,0,13.48,0,20.23c0,0.32,0.01,0.64-0.03,0.96c-0.08,0.64-0.45,1-1.09,1.1
		c-0.16,0.02-0.32,0.02-0.48,0.02c-1.95,0-3.89,0.01-5.84,0c-0.86,0-0.92-0.07-0.93-0.9c0-0.24,0-0.48,0-0.72c0-19.8,0-39.6,0-59.4
		c0-1.35,0.13-1.32-1.29-1.32c-1.39,0-2.77,0-4.16,0c-0.83,0-0.86,0.04-0.86,0.85c-0.01,1.09,0,2.19,0,3.28
		c0,7.06-0.03,14.12,0.01,21.19c0.04,6.69-4.98,12.76-12.13,13.67c-0.71,0.09-1.43,0.14-2.15,0.14c-3.84,0.01-7.68,0.12-11.52-0.02
		c-5.81-0.2-11.62-0.06-17.44-0.11c-3.81-0.03-7.63,0.03-11.44,0c-6.45-0.05-12.36-4.82-13.8-11.08c-0.26-1.12-0.37-2.26-0.37-3.41
		c0-7.75,0-15.51,0-23.26c0-1.28,0-1.28-1.28-1.28c-2.24,0-4.48,0-6.72,0c-0.56,0-1.12,0-1.67,0.14c-2.41,0.62-3.87,2.54-3.88,5.21
		c-0.02,3.06,0,6.13,0,9.19c0,0.05,0,0.11,0,0.16c0.06,7.65,0.14,15.29,0.11,22.94c-0.01,1.4,0,1.4-1.42,1.4
		c-12.56,0-25.12,0-37.68,0c-7.01,0-14.03-0.01-21.04,0c-4.1,0.01-7.64-1.41-10.54-4.27c-2.76-2.72-4.2-6.06-4.21-9.97
		c-0.01-7.7,0-15.4,0-23.1c0-0.24,0-0.48,0-0.72c-0.01-0.93-0.05-0.97-1.01-0.97c-5.04,0-10.08,0-15.12,0
		c-7.17,0-14.35,0-21.52-0.01c-0.77,0-1.55,0.01-2.3,0.25c-1.41,0.45-2.08,1.35-2.08,2.84c0,1.36,0,2.72,0,4.08
		c0,1.9,0.97,3.35,2.74,4.1c0.6,0.25,1.22,0.38,1.87,0.38c1.57-0.01,3.15-0.01,4.72-0.01c4.99,0,9.97-0.03,14.96,0.02
		c3.56,0.03,6.61,1.33,9.02,3.98c1.73,1.91,2.64,4.17,2.68,6.76c0.03,1.73,0.01,3.46,0.01,5.2c0,4.36-2.05,7.51-5.75,9.66
		c-1.86,1.08-3.9,1.57-6.04,1.61c-0.43,0.01-0.85,0.01-1.28,0.01c-15.71,0-31.42-0.1-47.12,0.04c-8.24,0.07-16.48,0.09-24.71,0.11
		c-11.95,0.03-23.89,0.01-35.84,0.01c-3.23,0-6.18-0.87-8.72-2.88c-3.43-2.7-5.23-6.26-5.33-10.63c-0.04-1.75-0.12-3.51,0.14-5.27
		c0.87-5.98,5.85-10.82,11.87-11.52c0.77-0.09,1.54-0.13,2.31-0.13c4.88,0,9.76,0,14.64,0c0.21,0,0.43,0,0.64,0
		c0.72-0.02,0.79-0.07,0.8-0.77c0.01-0.96,0.03-1.92-0.01-2.88c-0.1-2.71-2.11-4.77-4.83-4.93c-0.37-0.02-0.75-0.02-1.12-0.02
		c-5.71,0-11.41-0.02-17.12,0.01c-1.8,0.01-2.14-0.3-2.09-2.12c0.05-1.62,0-3.25,0.01-4.88c0-0.84,0.06-0.9,0.92-0.9
		c6.51,0,13.01-0.06,19.52,0.03c3.57,0.05,6.81,1.19,9.42,3.77c2.23,2.21,3.31,4.94,3.51,8.02c0.27,4.2,0.1,8.42,0.12,12.63
		c0.02,4.42,0,8.85,0,13.27c0,0.11,0,0.21,0,0.32c0.04,0.56,0.12,0.64,0.66,0.68c0.11,0.01,0.21,0.01,0.32,0.01
		c1.49,0,2.99,0,4.48,0c0.86,0,0.89-0.04,0.9-0.91c0-3.46,0-6.93,0-10.39c0-5.49-0.01-10.98,0.01-16.47
		c0.01-1.6-0.13-3.19-0.11-4.79c0.14-9.49,0.09-18.97,0.1-28.46c0-0.08,0-0.16,0-0.24c0.02-0.74,0.08-0.81,0.84-0.81
		c2.03-0.01,4.05-0.01,6.08,0c0.95,0,1.37,0.4,1.43,1.34c0.02,0.29,0.01,0.59,0.01,0.88c0,6.64,0.01,13.27,0.01,19.91
		c0,1.21,0,1.21,1.24,1.21c5.33,0,10.67,0,16,0.01c7.01,0.01,12.93,5.37,13.64,12.34c0.05,0.5,0.04,1.01,0.04,1.52
		c0,6.37-0.01,12.74,0.01,19.11c0.01,1.7-0.26,3.34-0.84,4.93c-0.06,0.18-0.13,0.35-0.18,0.53c-0.08,0.26,0.02,0.42,0.29,0.44
		c0.21,0.02,0.43,0.02,0.64,0.02c12.8,0,25.6,0.01,38.4,0.01c0.64,0,1.28,0.01,1.9-0.2c1.28-0.43,1.93-1.26,1.95-2.61
		c0.02-1.76,0-3.52,0-5.28c0-0.97-0.33-1.84-0.9-2.6c-0.71-0.94-1.64-1.49-2.87-1.47c-1.47,0.03-2.93,0.01-4.4,0.01
		c-4.96,0-9.92,0-14.88-0.01c-3.02,0-5.81-0.77-8.25-2.59c-2.81-2.11-4.41-4.87-4.38-8.46c0.01-1.39,0.01-2.77,0-4.16
		c-0.04-4.57,2.16-7.79,6.04-9.97c1.92-1.08,4.02-1.54,6.22-1.54c12.13-0.01,24.27-0.02,36.4-0.03c1.28,0,1.28,0,1.28-1.25
		c0-6.74,0-13.48,0-20.23c0-1.37,0-1.37,1.37-1.37c1.71,0,3.41,0,5.12,0c0.27,0,0.54-0.01,0.8,0.04c0.67,0.11,1.02,0.51,1.07,1.19
		c0.02,0.27,0.01,0.53,0.01,0.8c0,6.58,0,13.16,0,19.74c0,1.07,0,1.07,1.04,1.07c3.17,0,6.35-0.01,9.52-0.01c0.21,0,0.43,0,0.64,0
		c0.81,0.01,0.89,0.07,0.9,0.86c0.01,1.84,0.02,3.68-0.01,5.52c-0.02,1.16-0.4,1.52-1.57,1.52c-3.12,0.01-6.24,0-9.36,0
		c-1.15,0-1.16,0-1.16,1.13c0,7.97,0,15.94,0,23.9c0,3.07,1.78,5.14,4.81,5.63c0.61,0.1,1.21,0.15,1.83,0.15
		c2.21-0.01,4.43,0,6.64,0c0.21,0,0.43,0,0.64-0.01c0.19-0.01,0.3-0.12,0.24-0.32c-0.04-0.15-0.1-0.3-0.15-0.45
		c-0.54-1.49-0.84-3.02-0.82-4.62c0.01-1.09,0-2.19,0-3.28c0.03-6.79,5.28-12.63,12.03-13.4c0.77-0.09,1.54-0.13,2.31-0.13
		c4.93,0,9.87,0,14.8,0c0.24,0,0.48-0.01,0.72-0.01c0.36,0,0.56-0.16,0.55-0.53c-0.03-1.33,0.14-2.67-0.13-3.99
		c-0.49-2.36-2.31-3.92-4.72-4.05c-0.37-0.02-0.75-0.02-1.12-0.02c-5.76,0-11.52,0-17.28,0c-1.65,0-1.98-0.32-1.98-1.95
		c0-1.68-0.01-3.36,0-5.04c0.01-0.83,0.08-0.91,0.93-0.91c6.51,0,13.01-0.02,19.52,0.01c2.55,0.02,4.97,0.66,7.16,1.99
		c3.7,2.23,5.48,5.61,5.86,9.82c0,0.05,0.01,0.11,0.01,0.16c0.03,3.89,0.21,7.78,0.1,11.67c-0.14,4.58-0.03,9.17-0.08,13.75
		c0,0.11,0,0.21,0,0.32c0.01,0.97,0.01,0.98,0.98,0.98c1.44,0,2.88,0,4.32,0c1,0,1-0.01,1-1.04c0-8.21,0-16.42,0-24.62
		c0-2.05,0.34-4.04,1.21-5.9c1.64-3.52,4.46-5.62,8.15-6.65c1.61-0.45,3.25-0.57,4.91-0.59c2.11-0.03,4.21-0.01,6.32-0.01
		c1.21,0,1.21,0,1.21-1.19c0-6.69,0-13.38,0-20.07c0-0.27-0.01-0.53,0.01-0.8c0.05-0.54,0.15-0.63,0.69-0.68
		c0.19-0.01,0.37-0.01,0.56-0.01c1.76,0,3.52,0,5.28,0c0.24,0,0.48-0.01,0.72,0.02c0.68,0.09,1.05,0.48,1.1,1.16
		c0.02,0.29,0.01,0.59,0.01,0.88c0,6.48,0,12.95,0,19.43c0,1.25,0,1.25,1.29,1.25c3.95,0,7.89,0,11.84,0c1.24,0,1.25,0.01,1.25,1.24
		c0,1.65,0,3.3,0,4.96c0,1.38-0.36,1.76-1.75,1.77c-3.79,0.01-7.57,0-11.36,0.01c-0.24,0-0.48,0-0.72,0.01
		c-0.35,0.01-0.54,0.18-0.54,0.54c0,0.19-0.01,0.37-0.01,0.56c0,7.97,0,15.94,0,23.9c0,0.7,0.06,1.39,0.28,2.05
		c0.58,1.76,1.84,2.83,3.56,3.39c0.79,0.26,1.61,0.37,2.44,0.37c4.85,0,9.71,0,14.56,0C261.95,68.49,262.17,68.54,262.36,68.4z
		 M316.04,53.1c0,4.77,0,9.53,0,14.3c0,0.27,0,0.53,0.02,0.8c0.02,0.28,0.18,0.43,0.46,0.44c0.21,0.01,0.43,0.01,0.64,0.01
		c3.28,0,6.56,0.01,9.83,0.01c2.11,0,4.21,0.01,6.32,0c1.45-0.01,2.7-0.51,3.75-1.52c1.17-1.13,1.63-2.53,1.64-4.11
		c0.01-3.22,0-6.44,0-9.67c0-3.33,0-6.66,0-9.99c0-1.49-0.43-2.83-1.46-3.94c-1.13-1.21-2.54-1.71-4.16-1.71c-5.3,0-10.61,0-15.91,0
		c-1.13,0-1.13,0-1.13,1.16C316.04,43.62,316.04,48.36,316.04,53.1z M56.85,53.27c0,0,0.01,0,0.01,0c0,4.74,0,9.48,0,14.22
		c0,1.19,0,1.19,1.18,1.19c4.88,0,9.75,0,14.63,0c0.59,0,1.17,0.01,1.76-0.02c2.24-0.11,4.18-1.68,4.78-3.85
		c0.17-0.6,0.18-1.21,0.18-1.82c0-6.5,0-12.99,0-19.49c0-0.29,0.01-0.59-0.02-0.88c-0.15-1.57-0.84-2.84-2.09-3.8
		c-1.14-0.87-2.46-1.11-3.84-1.1c-5.2,0.01-10.39-0.06-15.59,0.09c-0.95,0.03-0.99,0.05-1,0.99c0,0.16,0,0.32,0,0.48
		C56.85,43.95,56.85,48.61,56.85,53.27z M187.16,68.49c0,0.01,0,0.01,0,0.02c2.66,0,5.33,0,7.99,0c0.16,0,0.32-0.01,0.48-0.01
		c0.32-0.01,0.5-0.16,0.5-0.49c0-0.21,0.01-0.43,0.01-0.64c0.01-3.99,0.01-7.99,0.02-11.98c0-0.21-0.01-0.43,0-0.64
		c0.01-0.41-0.2-0.57-0.59-0.56c-0.21,0.01-0.43,0-0.64,0c-3.38-0.07-6.76,0.11-10.15,0.1c-1.81-0.01-3.62-0.02-5.43,0.02
		c-2.98,0.06-5.17,2.27-5.22,5.24c-0.02,1.22,0.02,2.45-0.01,3.67c-0.05,2.86,2.47,5.35,5.37,5.27
		C182.04,68.44,184.6,68.49,187.16,68.49z M24.8,68.51C24.8,68.51,24.8,68.51,24.8,68.51c2.59,0,5.17,0,7.76,0
		c0.24,0,0.48,0,0.72-0.01c0.28-0.01,0.44-0.16,0.45-0.45c0.01-0.16,0.01-0.32,0.01-0.48c0.01-4.13,0.01-8.26,0.02-12.39
		c0-0.19,0-0.37-0.01-0.56c-0.02-0.25-0.15-0.4-0.4-0.41c-0.24-0.01-0.48-0.01-0.72-0.02c-3.41-0.06-6.82,0.11-10.23,0.1
		c-1.84,0-3.68-0.02-5.52,0.02c-2.84,0.07-5.05,2.26-5.14,5.09c-0.04,1.36-0.03,2.72,0,4.08c0.03,1.33,0.56,2.48,1.5,3.43
		c1.07,1.08,2.38,1.59,3.89,1.59C19.68,68.51,22.24,68.51,24.8,68.51z"/>
	<path class="st0" d="M109.27,94.74c0-1.17-0.01-2.34,0-3.52c0.01-0.91,0.28-1.22,1.18-1.24c1.15-0.03,2.29-0.02,3.44,0
		c1.49,0.04,2.47,1.12,2.37,2.53c-0.05,0.7,0,1.4-0.54,1.94c-0.2,0.2-0.13,0.35,0.03,0.55c0.77,0.97,0.61,2.08,0.32,3.12
		c-0.25,0.9-1.01,1.38-1.94,1.42c-1.28,0.05-2.56,0.04-3.84,0.01c-0.71-0.02-1.01-0.34-1.02-1.06
		C109.25,97.25,109.27,95.99,109.27,94.74C109.27,94.74,109.27,94.74,109.27,94.74z M112.66,98.12c0,0,0-0.01,0-0.01
		c0.45,0,0.9,0.03,1.35-0.01c0.47-0.04,0.68-0.24,0.72-0.7c0.04-0.42,0.04-0.85,0-1.27c-0.04-0.46-0.25-0.67-0.72-0.69
		c-0.9-0.03-1.8-0.01-2.71-0.01c-0.36,0-0.53,0.19-0.54,0.54c0,0.5-0.02,1.01,0,1.51c0.02,0.5,0.13,0.6,0.62,0.63
		C111.81,98.13,112.24,98.12,112.66,98.12z M112.63,93.96C112.63,93.96,112.63,93.96,112.63,93.96c0.19,0.01,0.37,0.01,0.56,0.01
		c1.5,0,1.79-0.34,1.56-1.8c-0.08-0.5-0.26-0.72-0.78-0.74c-0.88-0.03-1.75-0.01-2.63-0.02c-0.4,0-0.58,0.21-0.57,0.6
		c0,0.45,0,0.9,0,1.35c0,0.39,0.19,0.59,0.58,0.59C111.78,93.96,112.2,93.96,112.63,93.96z"/>
	<path class="st0" d="M198.12,94.77c0-1.12-0.01-2.24,0-3.35c0.02-1.11,0.33-1.43,1.44-1.45c1.01-0.02,2.02-0.01,3.04,0
		c0.21,0,0.43,0.03,0.64,0.06c1.2,0.2,1.95,1.03,1.96,2.25c0.02,1.68,0.02,3.35,0,5.03c-0.02,1.26-0.86,2.18-2.14,2.24
		c-1.28,0.06-2.56,0.04-3.83,0.01c-0.76-0.02-1.07-0.37-1.09-1.19C198.11,97.17,198.13,95.97,198.12,94.77
		C198.12,94.77,198.12,94.77,198.12,94.77z M199.62,94.74c0,0.9-0.01,1.81,0,2.71c0.01,0.56,0.1,0.65,0.66,0.66
		c0.85,0.02,1.7,0.02,2.55-0.01c0.64-0.02,0.86-0.24,0.87-0.89c0.02-1.62,0.02-3.24,0-4.86c-0.01-0.7-0.23-0.91-0.91-0.94
		c-0.82-0.03-1.65-0.02-2.47-0.01c-0.61,0.01-0.69,0.09-0.7,0.7C199.61,92.98,199.62,93.86,199.62,94.74z"/>
	<path class="st0" d="M175.62,90c0.74-0.01,1.49-0.07,2.23,0.06c1.02,0.18,1.6,0.75,1.79,1.77c0.09,0.53,0.09,1.06,0.04,1.59
		c-0.07,0.71-0.4,1.25-1,1.64c-0.56,0.37-0.56,0.39-0.27,1c0.43,0.92,0.87,1.82,1.29,2.74c0.27,0.6,0.16,0.75-0.49,0.76
		c-0.48,0.01-0.81-0.17-1.01-0.62c-0.43-0.94-0.91-1.87-1.32-2.82c-0.22-0.5-0.52-0.77-1.1-0.7c-0.34,0.04-0.69,0.02-1.04,0.01
		c-0.4-0.01-0.59,0.16-0.58,0.57c0.01,0.69,0,1.38,0,2.08c0,0.24,0.01,0.48-0.01,0.72c-0.04,0.65-0.57,0.98-1.16,0.71
		c-0.16-0.07-0.25-0.2-0.27-0.36c-0.03-0.18-0.04-0.37-0.04-0.56c0-2.42,0-4.84,0-7.26c0-0.08,0-0.16,0.01-0.24
		c0.06-0.73,0.3-1.02,1.02-1.08C174.34,89.96,174.98,90,175.62,90z M175.96,94.08C175.96,94.08,175.96,94.08,175.96,94.08
		c0.45,0,0.9,0.02,1.35-0.01c0.58-0.04,0.83-0.31,0.9-0.91c0.11-0.94-0.07-1.5-0.56-1.68c-0.1-0.04-0.21-0.06-0.31-0.06
		c-0.88-0.01-1.75-0.01-2.63-0.01c-0.35,0-0.55,0.16-0.55,0.53c0,0.53,0,1.06,0,1.59c-0.01,0.42,0.22,0.56,0.6,0.55
		C175.16,94.07,175.56,94.08,175.96,94.08z"/>
	<path class="st0" d="M118.56,94.98c0-1.2-0.01-2.39,0-3.59c0.01-1.09,0.29-1.4,1.36-1.42c1.01-0.02,2.02-0.01,3.03,0
		c0.29,0,0.59,0.04,0.87,0.1c1.07,0.22,1.65,0.92,1.7,2.01c0.02,0.4,0,0.8,0.01,1.2c0.02,0.76-0.31,1.32-0.93,1.75
		c-0.59,0.41-0.59,0.42-0.28,1.07c0.42,0.89,0.85,1.78,1.26,2.67c0.29,0.64,0.18,0.78-0.53,0.79c-0.49,0.01-0.78-0.19-0.98-0.64
		c-0.43-0.97-0.92-1.92-1.36-2.89c-0.19-0.42-0.43-0.64-0.91-0.61c-0.37,0.03-0.75-0.01-1.12,0.01c-0.53,0.02-0.6,0.08-0.61,0.61
		c-0.02,0.66-0.01,1.33-0.01,2c0,0.24,0.01,0.48,0,0.72c-0.03,0.64-0.21,0.81-0.82,0.8c-0.51-0.01-0.65-0.13-0.67-0.67
		c-0.02-0.8-0.01-1.6-0.01-2.39C118.56,95.99,118.56,95.49,118.56,94.98z M121.94,94.08C121.94,94.08,121.94,94.07,121.94,94.08
		c0.42-0.01,0.85,0.02,1.27-0.01c0.55-0.04,0.77-0.26,0.81-0.79c0.03-0.37,0.03-0.74-0.01-1.11c-0.05-0.5-0.25-0.72-0.77-0.74
		c-0.87-0.03-1.75-0.01-2.62-0.02c-0.35,0-0.55,0.16-0.55,0.53c0,0.53,0,1.06,0,1.59c-0.01,0.41,0.22,0.56,0.6,0.56
		C121.09,94.07,121.52,94.08,121.94,94.08z"/>
	<path class="st0" d="M249.12,94.92c0-1.22-0.01-2.45,0-3.67c0.01-0.94,0.29-1.24,1.24-1.27c1.09-0.03,2.18-0.02,3.28,0
		c0.48,0.01,0.96,0.09,1.38,0.34c0.11,0.07,0.23,0.14,0.33,0.23c1.18,0.99,1.01,3.7-0.28,4.54c-0.55,0.36-0.55,0.36-0.26,0.98
		c0.44,0.94,0.9,1.87,1.33,2.82c0.26,0.57,0.16,0.67-0.48,0.7c-0.52,0.02-0.85-0.17-1.07-0.65c-0.42-0.95-0.9-1.87-1.32-2.82
		c-0.21-0.47-0.49-0.72-1.03-0.67c-0.34,0.03-0.69,0.02-1.04,0.01c-0.41-0.01-0.58,0.19-0.58,0.58c0,0.72,0,1.44-0.01,2.16
		c0,0.21,0.01,0.43-0.01,0.64c-0.05,0.65-0.57,0.95-1.18,0.69c-0.28-0.12-0.29-0.36-0.29-0.6c-0.01-0.75,0-1.49-0.01-2.24
		C249.11,96.09,249.12,95.5,249.12,94.92z M252.45,94.08C252.45,94.08,252.45,94.08,252.45,94.08c0.16,0,0.32,0,0.48,0
		c1.65,0.07,1.7-0.25,1.65-1.83c0-0.03,0-0.05-0.01-0.08c-0.07-0.49-0.26-0.73-0.77-0.75c-0.88-0.03-1.76-0.02-2.64-0.01
		c-0.35,0-0.54,0.18-0.55,0.54c-0.01,0.51-0.02,1.01,0,1.52c0.02,0.5,0.12,0.58,0.64,0.61C251.65,94.09,252.05,94.08,252.45,94.08z"
		/>
	<path class="st0" d="M48.82,94.8c0,0.72,0.02,1.44,0,2.15c-0.05,1.79-0.91,2.63-2.68,2.63c-0.77,0-1.54,0.01-2.32,0
		c-1.26-0.03-2.09-0.76-2.3-2.01c-0.09-0.53-0.05-1.06-0.05-1.59c-0.01-1.12-0.01-2.23,0-3.35c0.03-1.81,0.91-2.68,2.72-2.7
		c0.69-0.01,1.38-0.01,2.08,0c1.57,0.03,2.47,0.9,2.55,2.47C48.85,93.21,48.82,94,48.82,94.8C48.82,94.8,48.82,94.8,48.82,94.8z
		 M42.97,94.76C42.97,94.76,42.97,94.76,42.97,94.76c0,0.77-0.02,1.54,0,2.32c0.02,0.86,0.29,1.13,1.17,1.15
		c0.72,0.01,1.44,0.02,2.16-0.01c0.69-0.02,1.01-0.3,1.02-0.97c0.03-1.65,0.03-3.3-0.01-4.95c-0.01-0.67-0.28-0.89-0.96-0.91
		c-0.77-0.02-1.55-0.02-2.32,0c-0.81,0.02-1.04,0.23-1.06,1.06C42.95,93.22,42.97,93.99,42.97,94.76z"/>
	<path class="st0" d="M93.65,94.67c0-0.72-0.02-1.44,0-2.15c0.05-1.67,0.94-2.56,2.59-2.58c0.77-0.01,1.54-0.02,2.32,0
		c1.41,0.05,2.34,0.87,2.4,2.26c0.07,1.73,0.07,3.46,0,5.18c-0.05,1.34-1.01,2.17-2.37,2.19c-0.85,0.02-1.7,0.02-2.55,0
		c-1.34-0.02-2.23-0.79-2.34-2.12c-0.08-0.92-0.02-1.86-0.02-2.79C93.67,94.67,93.66,94.67,93.65,94.67z M99.49,94.77
		c0-0.8,0.02-1.6,0-2.4c-0.02-0.74-0.24-0.96-0.96-0.98c-0.8-0.02-1.6-0.02-2.4,0c-0.72,0.02-0.97,0.25-0.98,0.97
		c-0.03,1.62-0.03,3.25,0,4.87c0.01,0.67,0.32,0.96,1.01,0.98c0.75,0.02,1.49,0.02,2.24,0c0.81-0.02,1.08-0.3,1.1-1.13
		C99.51,96.32,99.49,95.54,99.49,94.77z"/>
	<path class="st0" d="M242.94,89.97c0.92,0,1.01,0.07,1.32,0.95c0.91,2.56,1.81,5.12,2.71,7.69c0.09,0.26,0.33,0.58,0.1,0.82
		c-0.26,0.27-0.65,0.15-0.99,0.1c-0.27-0.04-0.39-0.26-0.47-0.49c-0.17-0.48-0.34-0.95-0.49-1.44c-0.12-0.37-0.32-0.58-0.74-0.57
		c-1.12,0.02-2.24,0.02-3.36,0c-0.42-0.01-0.63,0.19-0.75,0.56c-0.15,0.48-0.32,0.96-0.51,1.43c-0.2,0.5-0.84,0.73-1.33,0.51
		c-0.18-0.08-0.22-0.22-0.18-0.39c0.06-0.23,0.13-0.46,0.21-0.69c0.83-2.36,1.66-4.73,2.49-7.09
		C241.33,90.21,241.68,89.96,242.94,89.97z M242.59,95.66c0,0,0-0.01,0-0.01c0.45,0,0.9,0.01,1.35,0c0.27-0.01,0.39-0.18,0.31-0.43
		c-0.39-1.15-0.8-2.3-1.21-3.45c-0.06-0.16-0.15-0.28-0.34-0.3c-0.22-0.02-0.35,0.12-0.42,0.3c-0.14,0.34-0.26,0.69-0.38,1.04
		c-0.27,0.78-0.55,1.55-0.81,2.33c-0.14,0.43-0.09,0.5,0.38,0.52C241.85,95.68,242.22,95.66,242.59,95.66z"/>
	<path class="st0" d="M71.98,99.56c-0.56,0-0.73-0.12-0.94-0.67c-0.17-0.45-0.33-0.9-0.47-1.36c-0.11-0.35-0.33-0.52-0.71-0.51
		c-1.12,0.01-2.24,0.01-3.35,0c-0.41,0-0.64,0.16-0.77,0.55c-0.15,0.48-0.32,0.96-0.51,1.43c-0.21,0.52-0.82,0.74-1.31,0.51
		c-0.26-0.12-0.23-0.33-0.16-0.54c0.15-0.46,0.3-0.91,0.46-1.36c0.73-2.08,1.46-4.16,2.19-6.25c0.43-1.22,1.49-1.73,2.72-1.33
		c0.37,0.12,0.44,0.43,0.55,0.73c0.48,1.35,0.96,2.7,1.44,4.06c0.42,1.18,0.83,2.36,1.24,3.54c0.06,0.18,0.13,0.35,0.18,0.53
		C72.7,99.44,72.59,99.57,71.98,99.56z M66.53,95.35c0.03,0.29,0.22,0.31,0.41,0.31c0.8,0.01,1.6,0.02,2.39,0
		c0.47-0.01,0.53-0.09,0.38-0.53c-0.36-1.08-0.74-2.16-1.12-3.24c-0.02-0.05-0.04-0.1-0.07-0.15c-0.07-0.15-0.16-0.28-0.34-0.29
		c-0.22-0.01-0.34,0.13-0.42,0.31c-0.04,0.1-0.08,0.2-0.12,0.3c-0.34,0.98-0.68,1.96-1.01,2.94C66.6,95.12,66.56,95.25,66.53,95.35z
		"/>
	<path class="st0" d="M20.74,99.56c-0.38,0.02-0.66-0.15-0.8-0.57c-0.15-0.46-0.33-0.9-0.48-1.36c-0.13-0.4-0.35-0.62-0.8-0.62
		c-1.09,0.02-2.19,0.02-3.28,0c-0.45-0.01-0.68,0.2-0.8,0.61c-0.12,0.41-0.27,0.81-0.42,1.21c-0.24,0.63-0.49,0.79-1.15,0.72
		c-0.43-0.05-0.53-0.15-0.41-0.56c0.15-0.51,0.33-1.01,0.51-1.52c0.69-1.96,1.38-3.92,2.07-5.88c0.08-0.23,0.17-0.45,0.25-0.67
		c0.23-0.63,0.7-0.91,1.34-0.95c0.05,0,0.11-0.01,0.16-0.01c1.24-0.06,1.33-0.01,1.74,1.15c0.88,2.48,1.75,4.97,2.63,7.46
		c0.03,0.08,0.05,0.15,0.07,0.23C21.55,99.41,21.42,99.57,20.74,99.56z M16.95,95.66C16.95,95.66,16.95,95.66,16.95,95.66
		c0.45-0.01,0.9,0,1.36-0.01c0.27-0.01,0.4-0.15,0.31-0.42c-0.4-1.16-0.8-2.31-1.2-3.46c-0.07-0.19-0.18-0.33-0.41-0.32
		c-0.19,0.01-0.29,0.13-0.35,0.28c-0.42,1.18-0.83,2.36-1.23,3.54c-0.1,0.28,0.07,0.39,0.33,0.39
		C16.15,95.66,16.55,95.66,16.95,95.66z"/>
	<path class="st0" d="M87.4,89.97c0.93,0,1.02,0.07,1.32,0.94c0.88,2.49,1.76,4.97,2.64,7.46c0.04,0.1,0.08,0.2,0.1,0.3
		c0.06,0.29,0.37,0.61-0.04,0.84c-0.42,0.24-1.12,0.02-1.3-0.41c-0.21-0.49-0.38-0.99-0.54-1.5c-0.13-0.43-0.38-0.59-0.82-0.58
		c-1.07,0.02-2.13,0.02-3.2,0c-0.49-0.01-0.73,0.19-0.86,0.64c-0.14,0.46-0.3,0.91-0.48,1.35c-0.2,0.5-0.83,0.73-1.33,0.51
		c-0.28-0.12-0.22-0.34-0.15-0.54c0.2-0.61,0.41-1.21,0.62-1.81c0.68-1.93,1.36-3.87,2.04-5.8C85.8,90.21,86.15,89.96,87.4,89.97z
		 M85.49,95.41c0.04,0.27,0.24,0.25,0.42,0.25c0.82,0,1.65-0.01,2.47,0c0.38,0,0.47-0.14,0.35-0.49c-0.38-1.07-0.76-2.15-1.13-3.23
		c-0.04-0.1-0.07-0.2-0.13-0.29c-0.19-0.27-0.45-0.27-0.64,0.01c-0.07,0.11-0.12,0.23-0.17,0.36c-0.36,1.03-0.72,2.05-1.07,3.08
		C85.54,95.21,85.52,95.31,85.49,95.41z"/>
	<path class="st0" d="M189.63,99.56c-0.53,0-0.68-0.1-0.89-0.62c-0.17-0.45-0.34-0.9-0.49-1.35c-0.12-0.38-0.34-0.57-0.76-0.57
		c-1.12,0.01-2.24,0.01-3.36,0c-0.37,0-0.6,0.15-0.71,0.51c-0.14,0.43-0.32,0.85-0.44,1.28c-0.18,0.65-0.48,0.82-1.29,0.73
		c-0.26-0.03-0.38-0.17-0.31-0.44c0.04-0.15,0.09-0.31,0.14-0.46c0.87-2.46,1.73-4.93,2.61-7.38c0.41-1.15,1.57-1.66,2.7-1.22
		c0.32,0.12,0.41,0.4,0.51,0.67c0.39,1.08,0.77,2.16,1.16,3.24c0.53,1.51,1.06,3.02,1.58,4.53c0.04,0.1,0.07,0.2,0.1,0.3
		C190.36,99.41,190.25,99.56,189.63,99.56z M185.73,95.66C185.73,95.66,185.73,95.66,185.73,95.66c0.45,0,0.9,0,1.36,0
		c0.32,0,0.43-0.17,0.33-0.47c-0.39-1.13-0.79-2.26-1.19-3.39c-0.06-0.18-0.17-0.33-0.39-0.34c-0.23-0.01-0.34,0.15-0.4,0.33
		c-0.41,1.15-0.81,2.31-1.2,3.46c-0.09,0.26,0.01,0.41,0.3,0.41C184.94,95.66,185.34,95.66,185.73,95.66z"/>
	<path class="st0" d="M131.7,97.02c-0.53,0-1.07,0.02-1.6,0c-0.44-0.02-0.69,0.18-0.83,0.59c-0.15,0.46-0.3,0.91-0.48,1.35
		c-0.22,0.54-0.75,0.76-1.3,0.56c-0.17-0.06-0.28-0.17-0.24-0.36c0.04-0.18,0.1-0.36,0.16-0.53c0.86-2.46,1.72-4.92,2.59-7.38
		c0.4-1.13,1.55-1.65,2.7-1.22c0.29,0.11,0.4,0.33,0.49,0.59c0.28,0.78,0.55,1.55,0.83,2.33c0.65,1.86,1.31,3.71,1.96,5.57
		c0.02,0.05,0.05,0.1,0.05,0.15c0.03,0.28,0.37,0.61-0.08,0.83c-0.43,0.21-1.07,0.04-1.25-0.36c-0.19-0.44-0.33-0.9-0.49-1.35
		c-0.27-0.76-0.27-0.76-1.08-0.77C132.66,97.02,132.18,97.02,131.7,97.02C131.7,97.02,131.7,97.02,131.7,97.02z M131.67,95.66
		c0.43,0,0.85,0,1.28,0c0.29,0,0.48-0.1,0.36-0.43c-0.4-1.16-0.8-2.31-1.21-3.46c-0.06-0.18-0.19-0.32-0.42-0.31
		c-0.18,0.01-0.29,0.14-0.35,0.29c-0.41,1.15-0.81,2.31-1.21,3.46c-0.11,0.32,0.04,0.45,0.35,0.45
		C130.87,95.66,131.27,95.66,131.67,95.66z"/>
	<path class="st0" d="M266.6,93.95c0-1.09-0.02-2.18,0.01-3.28c0.01-0.56,0.19-0.71,0.74-0.7c0.53,0.01,0.72,0.17,0.73,0.71
		c0.02,0.88,0.01,1.76,0.01,2.64c0,1.2-0.01,2.4,0,3.6c0.01,1.06,0.25,1.29,1.34,1.3c0.61,0.01,1.23,0.01,1.84,0
		c0.88-0.02,1.1-0.22,1.1-1.09c0.01-1.86,0.01-3.73,0.01-5.59c0-0.24-0.01-0.48,0.01-0.72c0.04-0.68,0.24-0.87,0.88-0.85
		c0.54,0.02,0.68,0.16,0.68,0.84c0.01,1.54,0.01,3.09,0,4.63c0,0.66,0.04,1.33-0.06,1.99c-0.21,1.4-1.02,2.13-2.42,2.14
		c-0.8,0.01-1.6,0.01-2.4,0c-1.52-0.02-2.42-0.91-2.47-2.44c0-0.05,0-0.11,0-0.16C266.6,95.98,266.6,94.97,266.6,93.95
		C266.6,93.95,266.6,93.95,266.6,93.95z"/>
	<path class="st0" d="M224.64,99.57c-0.69,0-1.39,0.01-2.08,0c-0.57-0.01-0.72-0.15-0.74-0.61c-0.03-0.54,0.17-0.77,0.74-0.81
		c0.45-0.03,0.91-0.02,1.36-0.02c0.75,0,1.49,0,2.24,0c1.15-0.01,1.51-0.5,1.23-1.62c-0.09-0.35-0.35-0.45-0.63-0.54
		c-1.11-0.38-2.22-0.74-3.34-1.11c-1.47-0.49-1.64-0.74-1.62-2.31c0-0.27,0.02-0.53,0.07-0.79c0.17-0.91,0.73-1.45,1.62-1.66
		c0.23-0.05,0.47-0.1,0.71-0.1c1.23-0.01,2.45-0.02,3.68,0c0.62,0.01,0.77,0.16,0.77,0.67c0,0.55-0.17,0.72-0.79,0.75
		c-0.27,0.01-0.53,0.01-0.8,0.01c-0.83,0-1.65,0.02-2.48,0c-1.28-0.04-1.37,0.47-1.28,1.63c0.03,0.36,0.32,0.46,0.6,0.55
		c1.06,0.35,2.12,0.71,3.19,1.04c1.69,0.53,1.79,0.66,1.78,2.41c-0.01,1.73-0.8,2.52-2.56,2.53
		C225.76,99.57,225.2,99.57,224.64,99.57C224.64,99.57,224.64,99.57,224.64,99.57z"/>
	<path class="st0" d="M287.82,99.56c-0.69,0-1.39,0.02-2.08,0c-0.55-0.02-0.7-0.17-0.71-0.64c-0.01-0.51,0.16-0.74,0.69-0.78
		c0.61-0.04,1.23-0.02,1.84-0.02c0.61,0,1.23,0,1.84,0c1.09-0.01,1.56-0.71,1.16-1.73c-0.12-0.32-0.41-0.39-0.69-0.49
		c-1.11-0.37-2.22-0.74-3.34-1.11c-0.2-0.07-0.41-0.13-0.61-0.21c-0.49-0.18-0.79-0.53-0.86-1.05c-0.08-0.61-0.1-1.22,0.02-1.83
		c0.18-0.91,0.75-1.44,1.65-1.63c0.23-0.05,0.47-0.09,0.71-0.09c1.23-0.01,2.45-0.02,3.68-0.01c0.59,0.01,0.74,0.19,0.74,0.7
		c0,0.51-0.17,0.7-0.74,0.71c-1.04,0.02-2.08,0.01-3.12,0.01c-0.27,0-0.54,0-0.8,0.03c-0.45,0.07-0.64,0.28-0.7,0.74
		c-0.02,0.13-0.01,0.27-0.01,0.4c0,0.74,0.03,0.81,0.72,1.04c1.11,0.37,2.23,0.73,3.34,1.09c0.2,0.07,0.41,0.13,0.61,0.21
		c0.58,0.22,0.91,0.63,0.91,1.27c0,0.4,0.01,0.8,0,1.2c-0.05,1.27-0.82,2.09-2.1,2.17C289.27,99.6,288.54,99.56,287.82,99.56
		C287.82,99.56,287.82,99.56,287.82,99.56z"/>
	<path class="st0" d="M25.98,99.57c-0.67,0-1.33,0.01-2,0c-0.62-0.01-0.76-0.14-0.77-0.66c-0.01-0.55,0.16-0.74,0.77-0.77
		c0.69-0.03,1.39-0.01,2.08-0.02c0.61,0,1.23,0.01,1.84-0.01c0.66-0.03,0.85-0.23,0.89-0.87c0.07-0.97,0.01-1.06-0.92-1.37
		c-1.19-0.4-2.38-0.79-3.56-1.2c-0.84-0.29-1.09-0.64-1.11-1.54c-0.01-0.37-0.02-0.75,0-1.12c0.05-1.01,0.62-1.69,1.61-1.93
		c0.44-0.11,0.9-0.13,1.35-0.12c1.04,0.01,2.08-0.01,3.12,0.02c0.59,0.02,0.71,0.18,0.69,0.73c-0.02,0.47-0.13,0.63-0.61,0.66
		c-0.5,0.04-1.01,0.02-1.52,0.02c-0.75,0-1.49-0.01-2.24,0.01c-0.71,0.03-0.89,0.22-0.92,0.92c-0.01,0.16,0.01,0.32,0,0.48
		c-0.03,0.42,0.18,0.63,0.56,0.75c0.99,0.32,1.97,0.65,2.96,0.98c0.38,0.13,0.76,0.25,1.14,0.38c0.6,0.21,0.89,0.65,0.92,1.27
		c0.02,0.42,0.03,0.85-0.01,1.28c-0.11,1.23-0.89,2-2.13,2.08C27.42,99.59,26.7,99.56,25.98,99.57
		C25.98,99.56,25.98,99.57,25.98,99.57z"/>
	<path class="st0" d="M140.73,99.57c-0.69,0-1.39,0.01-2.08,0c-0.6-0.02-0.71-0.13-0.73-0.61c-0.03-0.57,0.13-0.75,0.73-0.81
		c0.21-0.02,0.43-0.02,0.64-0.02c0.99,0,1.97-0.02,2.96,0c1.18,0.03,1.37-0.28,1.25-1.63c-0.03-0.37-0.35-0.44-0.62-0.53
		c-1.16-0.39-2.32-0.78-3.49-1.16c-0.2-0.07-0.41-0.13-0.6-0.21c-0.54-0.23-0.85-0.63-0.87-1.22c-0.01-0.45-0.02-0.91,0-1.36
		c0.05-0.99,0.58-1.64,1.54-1.9c0.2-0.06,0.42-0.11,0.63-0.11c1.31-0.02,2.61-0.04,3.92-0.02c0.57,0.01,0.71,0.2,0.69,0.74
		c-0.02,0.46-0.15,0.6-0.62,0.66c-0.21,0.02-0.43,0.02-0.64,0.02c-1.01,0-2.03-0.01-3.04,0.01c-0.79,0.02-0.97,0.22-0.99,1.02
		c0,0.05,0,0.11,0,0.16c0,0.74,0.03,0.79,0.73,1.03c0.96,0.32,1.92,0.64,2.88,0.96c0.35,0.12,0.71,0.24,1.06,0.36
		c0.54,0.18,0.82,0.57,0.88,1.12c0.06,0.5,0.07,1.01,0,1.51c-0.16,1.17-0.96,1.92-2.15,1.98C142.12,99.59,141.42,99.56,140.73,99.57
		C140.73,99.56,140.73,99.56,140.73,99.57z"/>
	<path class="st0" d="M207.56,94.76c0-0.75-0.02-1.49,0-2.24c0.04-1.54,0.87-2.44,2.41-2.53c1.14-0.06,2.29-0.03,3.44-0.01
		c0.59,0.01,0.73,0.19,0.72,0.71c-0.01,0.52-0.16,0.68-0.75,0.7c-1.04,0.02-2.08,0-3.12,0.02c-0.94,0.01-1.2,0.26-1.21,1.18
		c-0.01,1.7-0.12,1.48,1.41,1.49c0.85,0.01,1.71-0.01,2.56,0.01c0.54,0.01,0.66,0.17,0.65,0.68c-0.01,0.5-0.13,0.65-0.68,0.66
		c-0.93,0.02-1.87,0.01-2.8,0.01c-1.15,0-1.15,0-1.15,1.12c0,1.48,0.08,1.56,1.6,1.56c0.91,0,1.81-0.01,2.72,0.02
		c0.58,0.02,0.72,0.17,0.77,0.61c0.06,0.58-0.1,0.8-0.69,0.8c-1.2,0.02-2.4,0.04-3.6-0.01c-1.35-0.05-2.18-0.92-2.27-2.32
		c-0.05-0.82-0.01-1.65-0.01-2.48C207.57,94.76,207.56,94.76,207.56,94.76z"/>
	<path class="st0" d="M159.82,94.8c0-0.85-0.02-1.71,0-2.56c0.03-1.19,0.74-2.03,1.92-2.19c1.32-0.18,2.66-0.09,3.99-0.05
		c0.48,0.01,0.58,0.19,0.58,0.68c0,0.49-0.11,0.67-0.57,0.69c-0.93,0.04-1.87,0.03-2.8,0.03c-1.6,0-1.65,0.05-1.63,1.68
		c0,0.05,0,0.11,0,0.16c0.02,0.77,0.07,0.83,0.82,0.84c0.88,0.01,1.76,0,2.64,0c0.19,0,0.37-0.01,0.56,0.01
		c0.47,0.05,0.61,0.21,0.6,0.66c0,0.45-0.15,0.66-0.6,0.67c-1.04,0.03-2.08,0.01-3.12,0.02c-0.85,0.01-0.88,0.04-0.9,0.92
		c0,0.29-0.01,0.59,0.01,0.88c0.04,0.64,0.24,0.85,0.9,0.87c0.85,0.03,1.71,0.01,2.56,0.01c0.27,0,0.53-0.01,0.8,0.01
		c0.65,0.05,0.93,0.51,0.7,1.11c-0.09,0.24-0.29,0.31-0.51,0.31c-1.33,0-2.67,0.06-4-0.04c-1.16-0.08-1.92-1-1.95-2.16
		C159.8,96.5,159.82,95.65,159.82,94.8z"/>
	<path class="st0" d="M35.07,99.57c-0.61,0-1.23,0.01-1.84,0c-0.82-0.01-0.95-0.12-0.94-0.72c0.01-0.58,0.16-0.7,0.98-0.72
		c0.88-0.01,1.76,0,2.64,0c0.27,0,0.53,0,0.8,0c1.02-0.02,1.51-0.76,1.14-1.73c-0.11-0.3-0.38-0.35-0.63-0.43
		c-1.24-0.42-2.48-0.83-3.71-1.24c-1.04-0.35-1.21-0.59-1.22-1.67c0-0.35-0.01-0.69,0-1.04c0.03-1.05,0.62-1.74,1.66-1.93
		c0.39-0.07,0.79-0.1,1.19-0.11c1.07-0.01,2.13-0.02,3.2,0.01c0.61,0.01,0.79,0.29,0.71,0.88c-0.06,0.46-0.37,0.54-0.75,0.54
		c-1.01,0-2.02,0-3.04,0.01c-0.27,0-0.53-0.01-0.8,0.03c-0.48,0.06-0.63,0.23-0.69,0.72c-0.01,0.13-0.01,0.27-0.01,0.4
		c0,0.78,0.03,0.84,0.77,1.09c1.18,0.4,2.37,0.79,3.56,1.19c0.99,0.33,1.16,0.58,1.17,1.63c0,0.29,0.01,0.59,0,0.88
		c-0.03,1.31-0.8,2.14-2.12,2.22C36.46,99.6,35.76,99.56,35.07,99.57C35.07,99.56,35.07,99.57,35.07,99.57z"/>
	<path class="st0" d="M276.32,94.92c0-1.22-0.01-2.45,0-3.67c0.01-0.95,0.29-1.25,1.24-1.27c1.09-0.03,2.18-0.04,3.27,0
		c1.58,0.06,2.42,0.97,2.44,2.56c0,0.24,0,0.48,0,0.72c-0.03,1.54-0.95,2.45-2.51,2.47c-0.8,0.01-1.6,0.02-2.39-0.01
		c-0.43-0.02-0.57,0.14-0.56,0.55c0.01,0.85,0.02,1.7-0.01,2.55c-0.02,0.58-0.18,0.73-0.71,0.75c-0.59,0.02-0.74-0.12-0.77-0.73
		c0-0.05,0-0.11,0-0.16C276.32,97.42,276.32,96.17,276.32,94.92z M279.71,91.42C279.71,91.42,279.71,91.41,279.71,91.42
		c-0.45-0.01-0.9-0.01-1.35,0c-0.35,0-0.54,0.19-0.54,0.54c0,0.64-0.01,1.27,0,1.91c0,0.27,0.12,0.48,0.41,0.49
		c0.93,0.02,1.86,0.09,2.78-0.04c0.52-0.07,0.72-0.34,0.75-0.87c0.02-0.42,0.02-0.85-0.01-1.27c-0.04-0.5-0.26-0.71-0.76-0.75
		C280.57,91.39,280.14,91.42,279.71,91.42z"/>
	<path class="st0" d="M51.18,94.79c0-0.83-0.01-1.65,0-2.48c0.02-1.26,0.76-2.13,2.01-2.28c1.27-0.15,2.55-0.07,3.83-0.04
		c0.48,0.01,0.6,0.19,0.61,0.66c0.01,0.5-0.14,0.68-0.63,0.74c-0.24,0.03-0.48,0.01-0.72,0.02c-0.91,0-1.81-0.01-2.72,0.01
		c-0.65,0.02-0.88,0.24-0.89,0.87c-0.02,1.65-0.02,3.3,0,4.95c0.01,0.64,0.24,0.85,0.9,0.87c0.88,0.03,1.76,0.01,2.64,0.01
		c0.27,0,0.54-0.01,0.8,0.03c0.5,0.07,0.66,0.3,0.63,0.83c-0.03,0.44-0.15,0.57-0.68,0.58c-1.2,0.02-2.4,0.04-3.6-0.01
		c-1.32-0.06-2.16-0.98-2.18-2.29C51.17,96.44,51.18,95.61,51.18,94.79z"/>
	<path class="st0" d="M234.13,89.97c0.93,0,1.87-0.02,2.8,0.01c0.58,0.02,0.75,0.25,0.7,0.81c-0.03,0.38-0.22,0.59-0.61,0.6
		c-0.48,0.01-0.96,0-1.44,0.02c-0.71,0.02-0.77,0.07-0.77,0.79c-0.01,2,0,3.99,0,5.99c0,0.21,0.01,0.43-0.01,0.64
		c-0.03,0.58-0.22,0.75-0.79,0.74c-0.48-0.01-0.63-0.13-0.68-0.6c-0.03-0.26-0.02-0.53-0.02-0.8c0-1.86,0-3.73,0-5.59
		c0-1.17,0-1.17-1.21-1.18c-0.32,0-0.64,0-0.96-0.01c-0.39-0.01-0.57-0.22-0.57-0.61c0-0.48,0.11-0.72,0.52-0.75
		c0.63-0.06,1.28-0.04,1.91-0.06C233.38,89.96,233.75,89.97,234.13,89.97C234.13,89.97,234.13,89.97,234.13,89.97z"/>
	<path class="st0" d="M260.49,95.43c0-1.09,0.01-2.18,0-3.27c-0.01-0.67-0.08-0.73-0.73-0.76c-0.48-0.02-0.96-0.01-1.44-0.02
		c-0.39-0.01-0.56-0.22-0.56-0.61c0-0.5,0.1-0.69,0.5-0.77c0.21-0.04,0.42-0.04,0.64-0.04c1.6,0,3.2,0,4.79,0
		c0.16,0,0.32,0,0.48,0.02c0.47,0.06,0.57,0.19,0.57,0.69c-0.01,0.49-0.11,0.66-0.57,0.7c-0.48,0.04-0.96,0.02-1.44,0.03
		c-0.66,0.02-0.74,0.09-0.74,0.75c-0.01,1.94-0.01,3.88-0.01,5.83c0,0.27,0.01,0.53-0.01,0.8c-0.04,0.67-0.52,0.98-1.15,0.74
		c-0.36-0.13-0.33-0.45-0.33-0.74C260.49,97.67,260.49,96.55,260.49,95.43C260.49,95.43,260.49,95.43,260.49,95.43z"/>
	<path class="st0" d="M151.51,94.02c0-1.09-0.01-2.18,0-3.27c0.01-0.59,0.16-0.74,0.68-0.77c0.57-0.03,0.76,0.13,0.8,0.72
		c0.02,0.27,0.01,0.53,0.01,0.8c0,1.78,0,3.57,0,5.35c0,1.1,0.16,1.26,1.24,1.27c0.96,0.01,1.92-0.01,2.88,0.02
		c0.61,0.02,0.77,0.18,0.81,0.66c0.04,0.52-0.13,0.72-0.66,0.77c-0.05,0-0.11,0-0.16,0c-1.09,0-2.18,0.02-3.28-0.01
		c-1.37-0.04-2.27-0.98-2.31-2.34c0-0.05,0-0.11,0-0.16C151.51,96.04,151.51,95.03,151.51,94.02
		C151.51,94.02,151.51,94.02,151.51,94.02z"/>
	<path class="st0" d="M148.89,94.86c0,1.3,0.01,2.61,0,3.91c-0.01,0.69-0.27,0.89-0.95,0.78c-0.31-0.05-0.48-0.21-0.52-0.51
		c-0.02-0.18-0.03-0.37-0.03-0.56c0-2.47,0-4.95,0-7.42c0-0.11,0-0.21,0-0.32c0.04-0.68,0.65-1,1.23-0.66
		c0.28,0.17,0.25,0.45,0.26,0.71c0.01,0.93,0,1.86,0,2.79C148.89,94.01,148.89,94.43,148.89,94.86
		C148.89,94.86,148.89,94.86,148.89,94.86z"/>
	<path class="st0" d="M170.13,94.79c0,1.33,0.01,2.66,0,3.99c-0.01,0.67-0.23,0.84-0.88,0.77c-0.38-0.04-0.59-0.22-0.6-0.61
		c0-0.16-0.01-0.32-0.01-0.48c0-2.47,0-4.95,0-7.42c0-0.13,0-0.27,0.01-0.4c0.04-0.52,0.18-0.66,0.68-0.67
		c0.54-0.01,0.79,0.16,0.79,0.66C170.14,92.03,170.13,93.41,170.13,94.79C170.13,94.79,170.13,94.79,170.13,94.79z"/>
	<path class="st0" d="M60.15,94.73c0-1.33-0.01-2.66,0-3.98c0.01-0.64,0.28-0.84,0.9-0.75c0.34,0.05,0.53,0.23,0.56,0.57
		c0.02,0.21,0.03,0.42,0.03,0.64c0,2.42,0,4.83,0,7.25c0,0.13,0,0.27-0.01,0.4c-0.05,0.59-0.23,0.74-0.81,0.71
		c-0.5-0.03-0.65-0.17-0.67-0.69c-0.02-0.56-0.01-1.11-0.01-1.67C60.14,96.37,60.14,95.55,60.15,94.73
		C60.14,94.73,60.14,94.73,60.15,94.73z"/>
	<path class="st0" d="M88.87,88.57c-0.02,0.66-0.31,0.94-0.95,0.89c-0.18-0.01-0.38-0.05-0.54-0.13c-0.39-0.2-0.7-0.37-1.13,0.01
		c-0.33,0.3-0.71,0.05-0.77-0.42c-0.1-0.74,0.22-1.1,0.97-1.09c0.3,0,0.58,0.08,0.83,0.23c0.24,0.15,0.46,0.24,0.69-0.04
		c0.17-0.21,0.42-0.22,0.66-0.12C88.94,88.04,88.84,88.34,88.87,88.57z"/>
</g>
</svg>
