<?xml version="1.0" encoding="utf-8"?>
<!-- Generator: Adobe Illustrator 24.2.1, SVG Export Plug-In . SVG Version: 6.00 Build 0)  -->
<svg version="1.1" id="Camada_1" xmlns="http://www.w3.org/2000/svg" xmlns:xlink="http://www.w3.org/1999/xlink" x="0px" y="0px"
	 viewBox="0 0 176.62 179.22" style="enable-background:new 0 0 176.62 179.22;" xml:space="preserve">
<style type="text/css">
	.st0{fill:#FFFFFF;}
	.st1{fill:url(#SVGID_1_);}
	.st2{fill:#7958C3;}
	.st3{fill:#6950AD;}
	.st4{fill:#FB358C;}
	.st5{fill:#E53389;}
	.st6{fill:#1CFDA5;}
	.st7{fill:#1CE58E;}
	.st8{fill:#06B3F5;}
	.st9{fill:#092342;}
</style>
<g>
	<path class="st0" d="M23.15,139.55c-5.15,0-9.34-4.19-9.34-9.34V45.57c0-5.15,4.19-9.34,9.34-9.34h131.23
		c5.15,0,9.34,4.19,9.34,9.34v84.63c0,5.15-4.19,9.34-9.34,9.34H23.15z"/>
	<linearGradient id="SVGID_1_" gradientUnits="userSpaceOnUse" x1="19.5515" y1="83.7853" x2="157.9719" y2="83.7853">
		<stop  offset="0.1564" style="stop-color:#1CFAD5"/>
		<stop  offset="0.3436" style="stop-color:#08BBF2"/>
		<stop  offset="0.4665" style="stop-color:#06B3F5"/>
		<stop  offset="0.6899" style="stop-color:#7958C3"/>
		<stop  offset="0.9916" style="stop-color:#F8358C"/>
	</linearGradient>
	<path class="st1" d="M157.97,122c0,1.98-1.62,3.59-3.59,3.59H23.15c-1.98,0-3.59-1.62-3.59-3.59V45.57c0-1.98,1.62-3.59,3.59-3.59
		h131.23c1.98,0,3.59,1.62,3.59,3.59L157.97,122L157.97,122z"/>
	<path class="st0" d="M67.4,139.55h42.73v13H67.4V139.55z"/>
	<circle class="st0" cx="88.76" cy="132.57" r="3.08"/>
	<path class="st0" d="M123.42,163.11H54.1v-7.15c0-1.89,1.53-3.42,3.42-3.42H120c1.89,0,3.42,1.53,3.42,3.42V163.11z"/>
	<g>
		<path class="st0" d="M69.87,152.55H57.52c-1.89,0-3.42,1.53-3.42,3.42v7.15h12.35v-7.15C66.45,154.08,67.98,152.55,69.87,152.55z"
			/>
	</g>
	<g>
		<path class="st0" d="M107.65,152.55H120c1.89,0,3.42,1.53,3.42,3.42v7.15h-12.35v-7.15C111.07,154.08,109.54,152.55,107.65,152.55
			z"/>
	</g>
	<path class="st2" d="M165.67,22.71h-39.38c-1.47,0-2.67,1.2-2.67,2.67v32.79c0,1.47,1.08,2.13,2.39,1.48l10.52-5.23h29.13
		c1.47,0,2.67-1.2,2.67-2.67V25.38C168.34,23.92,167.14,22.71,165.67,22.71L165.67,22.71z"/>
	<g>
		<path class="st3" d="M165.67,22.71h-12.35c1.47,0,2.67,1.2,2.67,2.67v26.36c0,1.47-1.2,2.67-2.67,2.67h12.35
			c1.47,0,2.67-1.2,2.67-2.67V25.38C168.34,23.92,167.14,22.71,165.67,22.71z"/>
	</g>
	<g>
		<circle class="st0" cx="133.45" cy="38.36" r="4.12"/>
		<circle class="st0" cx="145.98" cy="38.36" r="4.12"/>
		<circle class="st0" cx="158.51" cy="38.36" r="4.12"/>
	</g>
	<path class="st4" d="M11.86,22.71h39.38c1.47,0,2.67,1.2,2.67,2.67v32.79c0,1.47-1.08,2.13-2.39,1.48l-10.52-5.23H11.86
		c-1.47,0-2.67-1.2-2.67-2.67V25.38C9.19,23.92,10.39,22.71,11.86,22.71z"/>
	<g>
		<path class="st5" d="M21.53,51.75V25.38c0-1.47,1.2-2.67,2.67-2.67H11.86c-1.47,0-2.67,1.2-2.67,2.67v26.36
			c0,1.47,1.2,2.67,2.67,2.67H24.2C22.73,54.42,21.53,53.21,21.53,51.75z"/>
	</g>
	<g>
		<circle class="st0" cx="44.07" cy="38.36" r="4.12"/>
		<circle class="st0" cx="31.54" cy="38.36" r="4.12"/>
		<circle class="st0" cx="19.01" cy="38.36" r="4.12"/>
	</g>
	<path class="st6" d="M111.44,29.53c0-13.06-11.04-23.54-24.29-22.63C75.77,7.69,66.64,17.05,66.11,28.44
		c-0.51,11.05,6.88,20.46,17,23.05l4.45,4.45c0.67,0.67,1.75,0.67,2.42,0l4.45-4.45C104.21,48.98,111.44,40.1,111.44,29.53z"/>
	<g>
		<path class="st7" d="M78.45,28.44c0.46-9.82,7.31-18.13,16.48-20.74c-2.45-0.69-5.07-0.99-7.78-0.8
			C75.77,7.69,66.64,17.05,66.11,28.44c-0.51,11.05,6.88,20.46,17,23.05l4.45,4.45c0.67,0.67,1.75,0.67,2.42,0l4.45-4.45
			c0.17-0.04,0.34-0.1,0.52-0.14C85.08,48.57,77.95,39.3,78.45,28.44L78.45,28.44z"/>
	</g>
	<g>
		<circle class="st0" cx="101.29" cy="30.12" r="4.12"/>
		<circle class="st0" cx="88.76" cy="30.12" r="4.12"/>
		<circle class="st0" cx="76.23" cy="30.12" r="4.12"/>
	</g>
	<path class="st8" d="M109.76,105L87.33,93.23V71.67l22.43-11.77V105z"/>
	<path class="st7" d="M109.76,59.9h10.21V105h-10.21V59.9z"/>
	<path class="st2" d="M68.46,71.67h18.87v21.56H68.46V71.67z"/>
	<path class="st4" d="M57.47,77.06h10.99v10.79H57.47V77.06z"/>
	<path class="st0" d="M71.4,93.23h11.56v14.44H71.4V93.23z"/>
	<g>
		<path class="st9" d="M88.76,128.47c-2.26,0-4.1,1.84-4.1,4.1c0,2.26,1.84,4.1,4.1,4.1s4.1-1.84,4.1-4.1
			C92.86,130.31,91.02,128.47,88.76,128.47z M88.76,134.62c-1.13,0-2.05-0.92-2.05-2.05c0-1.13,0.92-2.05,2.05-2.05
			s2.05,0.92,2.05,2.05C90.81,133.7,89.89,134.62,88.76,134.62z"/>
		<path class="st9" d="M20.18,169.98H7.76c-0.57,0-1.03,0.46-1.03,1.03s0.46,1.03,1.03,1.03h12.43c0.57,0,1.03-0.46,1.03-1.03
			S20.75,169.98,20.18,169.98z"/>
		<path class="st9" d="M169.77,169.98h-12.43c-0.57,0-1.03,0.46-1.03,1.03s0.46,1.03,1.03,1.03h12.43c0.57,0,1.03-0.46,1.03-1.03
			S170.33,169.98,169.77,169.98z"/>
		<path class="st9" d="M147.42,169.98H30.1c-0.57,0-1.03,0.46-1.03,1.03s0.46,1.03,1.03,1.03h117.32c0.57,0,1.03-0.46,1.03-1.03
			S147.99,169.98,147.42,169.98z"/>
		<path class="st9" d="M7.76,164.14h5.34c0.57,0,1.03-0.46,1.03-1.03s-0.46-1.03-1.03-1.03H7.76c-0.57,0-1.03,0.46-1.03,1.03
			S7.19,164.14,7.76,164.14z"/>
		<path class="st9" d="M163.41,163.11c0,0.57,0.46,1.03,1.03,1.03h5.34c0.57,0,1.03-0.46,1.03-1.03s-0.46-1.03-1.03-1.03h-5.34
			C163.86,162.09,163.41,162.55,163.41,163.11z"/>
		<path class="st9" d="M133.45,43.5c2.84,0,5.14-2.31,5.14-5.14s-2.31-5.14-5.14-5.14s-5.14,2.31-5.14,5.14S130.61,43.5,133.45,43.5
			z M133.45,35.27c1.71,0,3.09,1.39,3.09,3.09s-1.39,3.09-3.09,3.09s-3.09-1.39-3.09-3.09S131.74,35.27,133.45,35.27z"/>
		<path class="st9" d="M145.98,43.5c2.84,0,5.14-2.31,5.14-5.14s-2.31-5.14-5.14-5.14c-2.84,0-5.14,2.31-5.14,5.14
			S143.14,43.5,145.98,43.5z M145.98,35.27c1.71,0,3.09,1.39,3.09,3.09s-1.39,3.09-3.09,3.09s-3.09-1.39-3.09-3.09
			S144.27,35.27,145.98,35.27z"/>
		<path class="st9" d="M158.51,43.5c2.84,0,5.14-2.31,5.14-5.14s-2.31-5.14-5.14-5.14c-2.84,0-5.14,2.31-5.14,5.14
			S155.67,43.5,158.51,43.5z M158.51,35.27c1.71,0,3.09,1.39,3.09,3.09s-1.39,3.09-3.09,3.09s-3.09-1.39-3.09-3.09
			S156.81,35.27,158.51,35.27z"/>
		<path class="st9" d="M11.86,55.44h0.92v74.76c0,5.72,4.65,10.37,10.37,10.37h43.22v10.95h-8.85c-2.45,0-4.44,1.99-4.44,4.44v6.12
			h-32.9c-0.57,0-1.03,0.46-1.03,1.03s0.46,1.03,1.03,1.03H54.1h69.32h33.92c0.57,0,1.03-0.46,1.03-1.03s-0.46-1.03-1.03-1.03h-32.9
			v-6.12c0-2.45-1.99-4.44-4.44-4.44h-8.85v-10.95h43.22c5.72,0,10.37-4.65,10.37-10.37V55.44h0.92c2.04,0,3.69-1.66,3.69-3.69
			V25.38c0-2.04-1.66-3.69-3.69-3.69h-39.38c-2.04,0-3.69,1.66-3.69,3.69v9.82h-10.82c0.45-1.83,0.69-3.73,0.69-5.68
			c0-6.55-2.75-12.86-7.53-17.33c-4.85-4.53-11.2-6.78-17.85-6.31c-11.98,0.83-21.44,10.51-22,22.52c-0.11,2.34,0.13,4.62,0.68,6.81
			H54.93v-9.82c0-2.04-1.66-3.69-3.69-3.69H11.86c-2.04,0-3.69,1.66-3.69,3.69v26.36C8.16,53.78,9.82,55.44,11.86,55.44L11.86,55.44
			z M122.39,155.97v6.12H55.13v-6.12c0-1.32,1.07-2.39,2.39-2.39h9.87h42.73H120C121.32,153.58,122.39,154.65,122.39,155.97z
			 M109.1,151.52H68.42v-10.95h40.68V151.52z M162.7,130.2c0,4.59-3.73,8.32-8.32,8.32h-44.25H67.4H23.15
			c-4.59,0-8.32-3.73-8.32-8.32V55.44h3.7V122c0,2.55,2.07,4.62,4.62,4.62h131.23c2.55,0,4.62-2.07,4.62-4.62V55.44h3.7L162.7,130.2
			L162.7,130.2z M53.74,60.58c0.75-0.47,1.19-1.35,1.19-2.41V43H69.3c3.11,4.5,7.74,7.92,13.28,9.41l4.25,4.25
			c0.53,0.53,1.23,0.8,1.93,0.8c0.7,0,1.4-0.27,1.93-0.8l4.25-4.25c5.56-1.5,10.21-4.91,13.32-9.41h14.33v15.17
			c0,1.06,0.43,1.94,1.19,2.41c0.37,0.23,0.8,0.35,1.26,0.35c0.46,0,0.95-0.12,1.42-0.36l10.31-5.13h20.17V122
			c0,1.42-1.15,2.57-2.57,2.57H23.15c-1.42,0-2.57-1.15-2.57-2.57V55.44h20.17l10.31,5.13c0.48,0.24,0.96,0.36,1.42,0.36
			C52.93,60.93,53.36,60.81,53.74,60.58L53.74,60.58z M124.65,25.38c0-0.91,0.74-1.64,1.64-1.64h39.38c0.91,0,1.64,0.74,1.64,1.64
			v26.36c0,0.91-0.74,1.64-1.64,1.64h-29.13c-0.16,0-0.31,0.04-0.46,0.11l-10.52,5.23c-0.35,0.17-0.59,0.17-0.69,0.1
			c-0.1-0.06-0.22-0.27-0.22-0.66L124.65,25.38z M122.6,37.25v3.7h-13.06c0.65-1.18,1.2-2.41,1.64-3.7H122.6z M67.13,28.49
			c0.51-10.97,9.15-19.81,20.09-20.57c0.52-0.04,1.04-0.05,1.55-0.05c5.51,0,10.7,2.04,14.76,5.82c4.37,4.08,6.88,9.85,6.88,15.83
			c0,9.89-6.68,18.52-16.25,20.98c-0.18,0.05-0.34,0.14-0.47,0.27l-4.45,4.45c-0.27,0.27-0.7,0.27-0.97,0l-4.45-4.45
			c-0.13-0.13-0.29-0.22-0.47-0.27C73.48,47.97,66.65,38.71,67.13,28.49L67.13,28.49z M66.37,37.25c0.45,1.28,1,2.52,1.65,3.7h-13.1
			v-3.7H66.37z M10.21,25.38c0-0.91,0.74-1.64,1.64-1.64h39.38c0.91,0,1.64,0.74,1.64,1.64v32.79c0,0.39-0.11,0.6-0.22,0.66
			c-0.1,0.07-0.34,0.07-0.69-0.1L41.45,53.5c-0.14-0.07-0.3-0.11-0.46-0.11H11.86c-0.91,0-1.64-0.74-1.64-1.64L10.21,25.38z"/>
		<path class="st9" d="M44.07,43.5c2.84,0,5.14-2.31,5.14-5.14s-2.31-5.14-5.14-5.14s-5.14,2.31-5.14,5.14S41.24,43.5,44.07,43.5z
			 M44.07,35.27c1.71,0,3.09,1.39,3.09,3.09s-1.39,3.09-3.09,3.09c-1.71,0-3.09-1.39-3.09-3.09S42.37,35.27,44.07,35.27z"/>
		<path class="st9" d="M31.54,43.5c2.84,0,5.14-2.31,5.14-5.14s-2.31-5.14-5.14-5.14s-5.14,2.31-5.14,5.14S28.71,43.5,31.54,43.5z
			 M31.54,35.27c1.71,0,3.09,1.39,3.09,3.09s-1.39,3.09-3.09,3.09c-1.71,0-3.09-1.39-3.09-3.09S29.84,35.27,31.54,35.27z"/>
		<path class="st9" d="M19.01,43.5c2.84,0,5.14-2.31,5.14-5.14s-2.31-5.14-5.14-5.14s-5.14,2.31-5.14,5.14S16.18,43.5,19.01,43.5z
			 M19.01,35.27c1.71,0,3.09,1.39,3.09,3.09s-1.39,3.09-3.09,3.09c-1.71,0-3.09-1.39-3.09-3.09S17.31,35.27,19.01,35.27z"/>
		<path class="st9" d="M101.29,35.27c2.84,0,5.14-2.31,5.14-5.14s-2.31-5.14-5.14-5.14c-2.84,0-5.14,2.31-5.14,5.14
			S98.46,35.27,101.29,35.27z M101.29,27.03c1.71,0,3.09,1.39,3.09,3.09s-1.39,3.09-3.09,3.09c-1.71,0-3.09-1.39-3.09-3.09
			S99.59,27.03,101.29,27.03z"/>
		<path class="st9" d="M88.76,35.27c2.84,0,5.14-2.31,5.14-5.14s-2.31-5.15-5.14-5.15c-2.84,0-5.14,2.31-5.14,5.14
			S85.92,35.27,88.76,35.27z M88.76,27.03c1.71,0,3.09,1.39,3.09,3.09s-1.39,3.09-3.09,3.09c-1.71,0-3.09-1.39-3.09-3.09
			S87.06,27.03,88.76,27.03z"/>
		<path class="st9" d="M81.37,30.12c0-2.84-2.31-5.14-5.14-5.14c-2.84,0-5.14,2.31-5.14,5.14s2.31,5.14,5.14,5.14
			C79.07,35.27,81.37,32.96,81.37,30.12z M73.14,30.12c0-1.71,1.39-3.09,3.09-3.09s3.09,1.39,3.09,3.09s-1.39,3.09-3.09,3.09
			S73.14,31.83,73.14,30.12z"/>
		<path class="st9" d="M57.47,88.87h9.97v4.37c0,0.57,0.46,1.03,1.03,1.03h1.91v13.41c0,0.57,0.46,1.03,1.03,1.03h11.56
			c0.57,0,1.03-0.46,1.03-1.03V94.26h3.11l22.19,11.65v-0.01c0.14,0.08,0.3,0.12,0.48,0.12h10.21c0.57,0,1.03-0.46,1.03-1.03V59.9
			c0-0.57-0.46-1.03-1.03-1.03h-10.21c-0.17,0-0.33,0.05-0.48,0.12v0L87.08,70.65H68.46c-0.57,0-1.03,0.46-1.03,1.03v4.36h-9.97
			c-0.57,0-1.03,0.46-1.03,1.03v10.78C56.44,88.41,56.9,88.87,57.47,88.87L57.47,88.87z M110.79,60.93h8.15v43.05h-8.15V60.93z
			 M81.93,106.64h-9.51V94.26h9.51V106.64z M108.74,103.3L88.35,92.6V72.29l20.38-10.7V103.3z M69.49,72.7H86.3v19.51h-3.34H71.4
			h-1.91v-4.37V77.06V72.7z M58.49,78.08h8.94v8.73h-8.94V78.08z"/>
	</g>
</g>
</svg>
