<?xml version="1.0" encoding="utf-8"?>
<!-- Generator: Adobe Illustrator 24.2.1, SVG Export Plug-In . SVG Version: 6.00 Build 0)  -->
<svg version="1.1" id="Camada_1" xmlns="http://www.w3.org/2000/svg" xmlns:xlink="http://www.w3.org/1999/xlink" x="0px" y="0px"
	 viewBox="0 0 176.62 179.22" style="enable-background:new 0 0 176.62 179.22;" xml:space="preserve">
<style type="text/css">
	.st0{fill:url(#SVGID_1_);}
	.st1{fill:url(#SVGID_2_);}
	.st2{fill:#FB358C;}
	.st3{fill:#7958C3;}
	.st4{fill:#E53389;}
	.st5{fill:#FF5FAC;}
	.st6{fill:#6950AD;}
	.st7{fill:#FF9F70;}
	.st8{fill:#092342;}
	.st9{fill:url(#SVGID_3_);}
	.st10{fill:#FFFFFF;}
	.st11{fill:#1CFDA5;}
</style>
<g>
	<linearGradient id="SVGID_1_" gradientUnits="userSpaceOnUse" x1="38.0803" y1="43.9293" x2="70.8049" y2="43.9293">
		<stop  offset="0.1564" style="stop-color:#1CFAD5"/>
		<stop  offset="0.3436" style="stop-color:#08BBF2"/>
		<stop  offset="0.4665" style="stop-color:#06B3F5"/>
		<stop  offset="0.6899" style="stop-color:#7958C3"/>
		<stop  offset="0.9916" style="stop-color:#F8358C"/>
	</linearGradient>
	<path class="st0" d="M65.58,39.84l-2.2,0l-4.79-0.01c0-0.08,0-0.15,0-0.23v-7.54h-8.26v7.53c0,0.08,0,0.15,0,0.23l-4.8-0.01l-2.2,0
		c-2.89,0-5.24,2.34-5.24,5.23L38.08,55.8h32.71l0.01-10.71C70.81,42.19,68.47,39.85,65.58,39.84L65.58,39.84z"/>
	<linearGradient id="SVGID_2_" gradientUnits="userSpaceOnUse" x1="98.0118" y1="43.9293" x2="130.7364" y2="43.9293">
		<stop  offset="0.1564" style="stop-color:#1CFAD5"/>
		<stop  offset="0.3436" style="stop-color:#08BBF2"/>
		<stop  offset="0.4665" style="stop-color:#06B3F5"/>
		<stop  offset="0.6899" style="stop-color:#7958C3"/>
		<stop  offset="0.9916" style="stop-color:#F8358C"/>
	</linearGradient>
	<path class="st1" d="M125.51,39.84l-2.2,0l-4.79-0.01c0-0.08,0-0.15,0-0.23v-7.54h-8.26v7.53c0,0.08,0,0.15,0,0.23l-4.8-0.01
		l-2.2,0c-2.89,0-5.24,2.34-5.24,5.23L98.01,55.8h32.71l0.01-10.71C130.74,42.19,128.4,39.85,125.51,39.84L125.51,39.84z"/>
	<ellipse class="st2" cx="84.47" cy="150.23" rx="20.25" ry="20.25"/>
	<path class="st3" d="M28.88,55.8l35.28,53.48V130h40.48v-20.73l35.28-53.48L28.88,55.8z"/>
	<path class="st4" d="M84.41,130c-0.87,0-1.73,0.06-2.57,0.17c9.96,1.26,17.67,9.76,17.67,20.07c0,10.31-7.71,18.81-17.67,20.07
		c0.84,0.11,1.7,0.17,2.57,0.17c11.18,0,20.24-9.06,20.24-20.24C104.65,139.06,95.59,130,84.41,130z"/>
	<path class="st5" d="M84.41,130c0.87,0,1.73,0.06,2.57,0.17c-9.96,1.26-17.67,9.76-17.67,20.07c0,10.31,7.71,18.81,17.67,20.07
		c-0.84,0.11-1.7,0.17-2.57,0.17c-11.18,0-20.24-9.06-20.24-20.24C64.17,139.06,73.23,130,84.41,130z"/>
	<path class="st6" d="M133.51,55.8l-35.28,53.48V130h6.42v-20.73l35.28-53.48L133.51,55.8z"/>
	<path class="st6" d="M35.31,55.8l35.28,53.48V130h-6.42v-20.73L28.88,55.8L35.31,55.8z"/>
	<path class="st7" d="M110.26,32.06h8.26v7.94c0,2.28-1.85,4.13-4.13,4.13s-4.13-1.85-4.13-4.13L110.26,32.06z"/>
	<path class="st8" d="M114.39,45.47c-3.01,0-5.46-2.45-5.46-5.46v-7.94c0-0.73,0.59-1.33,1.33-1.33h8.26c0.73,0,1.33,0.59,1.33,1.33
		v7.94C119.85,43.02,117.4,45.47,114.39,45.47L114.39,45.47z M111.59,33.39v6.62c0,1.55,1.26,2.81,2.81,2.81
		c1.55,0,2.81-1.26,2.81-2.81v-6.62H111.59z"/>
	<path class="st8" d="M130.72,57.12H98.01c-0.35,0-0.69-0.14-0.94-0.39c-0.25-0.25-0.39-0.59-0.39-0.94l0.01-10.75
		c0.01-3.61,2.95-6.55,6.56-6.55h0.01l5.67,0.01l0-6.43c0-0.73,0.59-1.33,1.33-1.33h8.26c0.73,0,1.33,0.59,1.33,1.33v6.45l5.66,0.01
		c1.75,0,3.4,0.69,4.64,1.93c1.24,1.24,1.92,2.89,1.92,4.64l-0.01,10.71C132.05,56.53,131.45,57.12,130.72,57.12L130.72,57.12z
		 M99.34,54.47h30.06l0.01-9.39c0-1.04-0.4-2.03-1.14-2.76c-0.74-0.74-1.72-1.15-2.76-1.15l-6.98-0.01c-0.36,0-0.71-0.15-0.96-0.42
		c-0.25-0.27-0.38-0.62-0.36-0.99l0-0.15v-6.22h-5.61l0,6.31c0.02,0.36-0.11,0.75-0.36,1.01c-0.25,0.27-0.6,0.44-0.96,0.44
		c0,0,0,0,0,0l-7-0.01c0,0,0,0-0.01,0c-2.15,0-3.9,1.75-3.91,3.9L99.34,54.47z"/>
	<path class="st7" d="M114.38,37.39c-4.6,0-8.34-3.78-8.34-8.45V23.1c0-4.66,3.73-8.44,8.34-8.44s8.34,3.78,8.34,8.44v5.85
		C122.72,33.61,118.99,37.39,114.38,37.39z"/>
	<path class="st8" d="M114.38,38.72c-5.33,0-9.66-4.38-9.66-9.77V23.1c0-5.39,4.33-9.77,9.66-9.77c5.33,0,9.66,4.38,9.66,9.77v5.85
		C124.05,34.34,119.71,38.72,114.38,38.72z M114.38,15.98c-3.87,0-7.01,3.19-7.01,7.12v5.85c0,3.93,3.15,7.12,7.01,7.12
		c3.87,0,7.01-3.19,7.01-7.12V23.1C121.39,19.18,118.25,15.98,114.38,15.98z"/>
	<path class="st7" d="M50.33,32.06h8.26v7.94c0,2.28-1.85,4.13-4.13,4.13c-2.28,0-4.13-1.85-4.13-4.13V32.06z"/>
	<path class="st8" d="M54.46,45.47c-3.01,0-5.46-2.45-5.46-5.46v-7.94c0-0.73,0.59-1.33,1.33-1.33h8.27c0.73,0,1.33,0.59,1.33,1.33
		v7.94C59.92,43.02,57.47,45.47,54.46,45.47z M51.65,33.39v6.62c0,1.55,1.26,2.81,2.81,2.81c1.55,0,2.81-1.26,2.81-2.81v-6.62H51.65
		z"/>
	<path class="st8" d="M70.79,57.12H38.08c-0.35,0-0.69-0.14-0.94-0.39c-0.25-0.25-0.39-0.59-0.39-0.94l0.01-10.75
		c0-1.75,0.69-3.4,1.93-4.64c1.24-1.23,2.88-1.91,4.63-1.91h0.01L49,38.5l0-6.43c0-0.73,0.59-1.33,1.33-1.33h8.27
		c0.73,0,1.33,0.59,1.33,1.33v6.45l5.66,0.01c1.75,0,3.4,0.69,4.64,1.93c1.24,1.24,1.92,2.89,1.92,4.64L72.12,55.8
		C72.12,56.53,71.52,57.12,70.79,57.12L70.79,57.12z M39.41,54.47h30.06l0.01-9.39c0-1.04-0.4-2.03-1.14-2.76
		c-0.74-0.74-1.72-1.15-2.76-1.15l-6.98-0.01c-0.36,0-0.71-0.15-0.96-0.42c-0.25-0.27-0.38-0.62-0.36-0.99l0-0.16v-6.2h-5.61l0,6.31
		c0.02,0.36-0.11,0.75-0.36,1.01c-0.25,0.26-0.6,0.44-0.96,0.44c0,0,0,0,0,0l-6.99-0.01c0,0,0,0-0.01,0c-2.15,0-3.91,1.75-3.91,3.9
		L39.41,54.47z"/>
	<linearGradient id="SVGID_3_" gradientUnits="userSpaceOnUse" x1="64.641" y1="41.4585" x2="104.177" y2="41.4585">
		<stop  offset="0.1564" style="stop-color:#1CFAD5"/>
		<stop  offset="0.3436" style="stop-color:#08BBF2"/>
		<stop  offset="0.4665" style="stop-color:#06B3F5"/>
		<stop  offset="0.6899" style="stop-color:#7958C3"/>
		<stop  offset="0.9916" style="stop-color:#F8358C"/>
	</linearGradient>
	<path class="st9" d="M97.86,36.52l-2.66,0l-5.78-0.01c0.01-0.09,0-0.18,0-0.28v-9.11h-9.98v9.1c0,0.09-0.01,0.19,0,0.28l-5.79-0.01
		l-2.66,0c-3.49,0-6.33,2.82-6.33,6.32l-0.02,13h39.52l0.02-12.94C104.18,39.36,101.35,36.53,97.86,36.52L97.86,36.52z"/>
	<path class="st8" d="M104.16,57.12H64.64c-0.35,0-0.69-0.14-0.94-0.39c-0.25-0.25-0.39-0.59-0.39-0.94l0.02-12.99
		c0-2.04,0.8-3.96,2.25-5.41c1.44-1.44,3.36-2.23,5.4-2.23h0.01l7.12,0.01l0-8.05c0-0.73,0.59-1.33,1.33-1.33h9.98
		c0.73,0,1.33,0.59,1.33,1.33v8.07l7.11,0.01c2.04,0,3.96,0.8,5.4,2.25c1.44,1.45,2.24,3.37,2.23,5.41l-0.02,12.94
		C105.49,56.53,104.89,57.12,104.16,57.12L104.16,57.12z M65.97,54.47h36.87l0.01-11.62c0-1.33-0.52-2.59-1.46-3.54
		s-2.2-1.47-3.53-1.47c0,0,0,0,0,0l-8.44-0.01c-0.36,0-0.71-0.15-0.96-0.41c-0.25-0.26-0.38-0.62-0.36-0.98l0-0.21v-7.79h-7.33
		l0,7.88c0,0.03,0,0.07,0,0.1c0.02,0.36-0.11,0.72-0.36,0.99c-0.25,0.26-0.6,0.41-0.96,0.41c0,0,0,0,0,0l-8.45-0.01c0,0,0,0-0.01,0
		c-1.33,0-2.58,0.52-3.53,1.46c-0.95,0.94-1.47,2.2-1.47,3.53L65.97,54.47z"/>
	<path class="st7" d="M54.45,37.39c-4.6,0-8.34-3.78-8.34-8.45V23.1c0-4.66,3.73-8.44,8.34-8.44s8.34,3.78,8.34,8.44v5.85
		C62.79,33.61,59.06,37.39,54.45,37.39z"/>
	<g>
		<path class="st8" d="M54.45,38.72c-5.33,0-9.66-4.38-9.66-9.77V23.1c0-5.39,4.33-9.77,9.66-9.77s9.66,4.38,9.66,9.77v5.85
			C64.11,34.34,59.78,38.72,54.45,38.72z M54.45,15.98c-3.87,0-7.01,3.19-7.01,7.12v5.85c0,3.93,3.15,7.12,7.01,7.12
			s7.01-3.19,7.01-7.12V23.1C61.46,19.18,58.32,15.98,54.45,15.98z"/>
		<path class="st8" d="M104.65,131.33H64.17c-0.73,0-1.33-0.59-1.33-1.33v-20.33L27.78,56.53c-0.27-0.41-0.29-0.93-0.06-1.36
			c0.23-0.43,0.68-0.7,1.17-0.7h111.05c0.49,0,0.94,0.27,1.17,0.7c0.23,0.43,0.21,0.95-0.06,1.36l-35.06,53.15V130
			C105.97,130.73,105.38,131.33,104.65,131.33L104.65,131.33z M65.49,128.67h37.83v-19.4c0-0.26,0.08-0.51,0.22-0.73l33.93-51.42
			H31.35l33.93,51.42c0.14,0.22,0.22,0.47,0.22,0.73L65.49,128.67z"/>
		<path class="st8" d="M47.65,74.87c-0.43,0-0.85-0.21-1.11-0.6l-5.25-7.95c-0.4-0.61-0.23-1.43,0.38-1.84
			c0.61-0.4,1.43-0.23,1.84,0.38l5.25,7.95c0.4,0.61,0.23,1.43-0.38,1.84C48.15,74.8,47.9,74.87,47.65,74.87z"/>
		<path class="st8" d="M84.41,171.81c-11.89,0-21.57-9.67-21.57-21.57s9.67-21.57,21.57-21.57s21.57,9.67,21.57,21.57
			S96.3,171.81,84.41,171.81z M84.41,131.33c-10.43,0-18.91,8.49-18.91,18.91c0,10.43,8.49,18.91,18.91,18.91
			s18.91-8.49,18.91-18.91C103.32,139.81,94.84,131.33,84.41,131.33z"/>
	</g>
	<path class="st7" d="M79.44,27.12h9.98v9.6c0,2.76-2.24,4.99-4.99,4.99c-2.76,0-4.99-2.24-4.99-4.99L79.44,27.12L79.44,27.12z"/>
	<path class="st8" d="M84.43,43.04c-3.48,0-6.32-2.83-6.32-6.32v-9.6c0-0.73,0.59-1.33,1.33-1.33h9.98c0.73,0,1.33,0.59,1.33,1.33
		v9.6C90.75,40.2,87.92,43.04,84.43,43.04z M80.76,28.45v8.27c0,2.02,1.64,3.67,3.67,3.67c2.02,0,3.67-1.64,3.67-3.67v-8.27
		L80.76,28.45z"/>
	<path class="st7" d="M84.42,33.56c-5.56,0-10.07-4.57-10.07-10.2V16.3c0-5.63,4.51-10.2,10.07-10.2s10.07,4.57,10.07,10.2v7.06
		C94.49,28.99,89.98,33.56,84.42,33.56L84.42,33.56z"/>
	<path class="st8" d="M84.42,34.89c-6.28,0-11.4-5.17-11.4-11.53V16.3c0-6.36,5.11-11.53,11.4-11.53s11.4,5.17,11.4,11.53v7.06
		C95.82,29.72,90.7,34.89,84.42,34.89z M84.42,7.42c-4.82,0-8.75,3.98-8.75,8.88v7.06c0,4.9,3.92,8.88,8.75,8.88
		c4.82,0,8.75-3.98,8.75-8.88V16.3C93.17,11.4,89.24,7.42,84.42,7.42z"/>
	<path class="st10" d="M84.67,139.42c0.62,0,1.12,0.49,1.12,1.12v0.57c1.53,0.18,2.83,0.67,4.02,1.43c0.41,0.23,0.78,0.62,0.78,1.25
		c0,0.8-0.65,1.43-1.45,1.43c-0.26,0-0.52-0.08-0.78-0.23c-0.91-0.54-1.79-0.93-2.67-1.14v4.98c3.94,0.99,5.63,2.57,5.63,5.35
		c0,2.85-2.23,4.75-5.53,5.06v1.56c0,0.62-0.49,1.12-1.12,1.12c-0.62,0-1.14-0.49-1.14-1.12v-1.61c-1.95-0.21-3.74-0.91-5.32-2.02
		c-0.44-0.29-0.7-0.7-0.7-1.25c0-0.8,0.62-1.43,1.43-1.43c0.31,0,0.62,0.1,0.86,0.29c1.22,0.88,2.41,1.48,3.84,1.74v-5.11
		c-3.79-0.99-5.55-2.41-5.55-5.35c0-2.78,2.21-4.7,5.45-4.96v-0.54C83.53,139.92,84.05,139.42,84.67,139.42L84.67,139.42z
		 M83.63,148.27v-4.59c-1.66,0.16-2.49,1.04-2.49,2.18C81.14,146.95,81.63,147.62,83.63,148.27z M85.68,151.88v4.72
		c1.66-0.18,2.57-1.01,2.57-2.26C88.25,153.2,87.68,152.5,85.68,151.88z"/>
	<path class="st11" d="M78.58,100.18l5.83,7.88l5.83-7.88l5.83-7.88H88.9v-23.8h-8.99v23.8h-7.17L78.58,100.18z"/>
	<path class="st8" d="M84.41,109.39c-0.42,0-0.82-0.2-1.07-0.54L71.68,93.09c-0.3-0.4-0.34-0.94-0.12-1.39
		c0.23-0.45,0.68-0.73,1.18-0.73h5.84V68.51c0-0.73,0.59-1.33,1.33-1.33h8.99c0.73,0,1.33,0.59,1.33,1.33v22.47h5.84
		c0.5,0,0.96,0.28,1.18,0.73c0.23,0.45,0.18,0.98-0.12,1.39l-11.66,15.76C85.22,109.19,84.83,109.39,84.41,109.39L84.41,109.39z
		 M75.38,93.63l4.27,5.76l4.77,6.44l9.03-12.2H88.9c-0.73,0-1.33-0.59-1.33-1.33V69.84h-6.34v22.47c0,0.73-0.59,1.33-1.33,1.33
		H75.38z"/>
</g>
</svg>
