<?xml version="1.0" encoding="utf-8"?>
<!-- Generator: Adobe Illustrator 24.2.1, SVG Export Plug-In . SVG Version: 6.00 Build 0)  -->
<svg version="1.1" id="Camada_1" xmlns="http://www.w3.org/2000/svg" xmlns:xlink="http://www.w3.org/1999/xlink" x="0px" y="0px"
	 viewBox="0 0 176.62 179.22" style="enable-background:new 0 0 176.62 179.22;" xml:space="preserve">
<style type="text/css">
	.st0{fill:#FB358C;}
	.st1{fill:#1CFDA5;}
	.st2{fill:#7958C3;}
	.st3{fill:#06B3F5;}
	.st4{fill:#6950AD;}
	.st5{fill:#1CE58E;}
	.st6{fill:#E53389;}
	.st7{fill:#07ABDD;}
	.st8{fill:#092342;}
	.st9{fill:url(#SVGID_1_);}
</style>
<g>
	<path class="st0" d="M18.7,121.77v37.52h26.78v-37.52c0-1.83-1.48-3.31-3.31-3.31H22.01C20.18,118.45,18.7,119.94,18.7,121.77z"/>
	<path class="st1" d="M56.18,105.7v53.58h26.78V105.7c0-1.83-1.48-3.31-3.31-3.31H59.49C57.66,102.39,56.18,103.87,56.18,105.7
		L56.18,105.7z"/>
	<path class="st2" d="M93.67,85.62v73.67h26.78V85.62c0-1.83-1.48-3.31-3.31-3.31H96.98C95.15,82.31,93.67,83.79,93.67,85.62
		L93.67,85.62z"/>
	<path class="st3" d="M131.15,72.23v87.05h26.78V72.23c0-1.83-1.48-3.31-3.31-3.31h-20.15C132.64,68.92,131.15,70.4,131.15,72.23z"
		/>
	<path class="st4" d="M93.67,123.73v35.56h26.78v-48.56C112.22,115.41,103.24,119.79,93.67,123.73L93.67,123.73z"/>
	<path class="st5" d="M76.9,129.95c-6.98,2.32-13.9,4.29-20.72,5.94v23.4h26.78v-31.43C80.96,128.57,78.94,129.27,76.9,129.95
		L76.9,129.95z"/>
	<path class="st6" d="M18.7,141.73v17.56h26.78v-21.06C36.21,140.02,27.23,141.18,18.7,141.73L18.7,141.73z"/>
	<path class="st7" d="M131.15,104.17v55.12h26.78V81.91C150.94,89.57,141.87,97.12,131.15,104.17L131.15,104.17z"/>
	<path class="st8" d="M5.98,166.68v-4.08c0-1.83,1.48-3.31,3.31-3.31h158.04c1.83,0,3.31,1.48,3.31,3.31v4.08
		c0,1.83-1.48,3.31-3.31,3.31H9.29C7.46,170,5.98,168.51,5.98,166.68z"/>
	<linearGradient id="SVGID_1_" gradientUnits="userSpaceOnUse" x1="92.3403" y1="0.9516" x2="85.4818" y2="95.6399">
		<stop  offset="0.1564" style="stop-color:#1CFAD5"/>
		<stop  offset="0.3436" style="stop-color:#08BBF2"/>
		<stop  offset="0.4665" style="stop-color:#06B3F5"/>
		<stop  offset="0.6899" style="stop-color:#7958C3"/>
		<stop  offset="0.9916" style="stop-color:#F8358C"/>
	</linearGradient>
	<path class="st9" d="M152.57,5.33h-23.46c-1.83,0-3.31,1.48-3.31,3.31v4.08c0,1.83,1.48,3.31,3.31,3.31h10.53l-28.11,28.11H89.32
		c-1.5,0-2.93,0.63-3.95,1.74L53.83,80.3H21.67c-1.83,0-3.31,1.48-3.31,3.31v4.08c0,1.83,1.48,3.31,3.31,3.31h34.51
		c1.5,0,2.93-0.63,3.95-1.74l31.54-34.41h22.08c1.42,0,2.78-0.56,3.79-1.57l29.68-29.68v10.53c0,1.83,1.48,3.31,3.31,3.31h4.08
		c1.83,0,3.31-1.48,3.31-3.31V10.68C157.93,7.73,155.53,5.33,152.57,5.33L152.57,5.33z"/>
</g>
</svg>
