<?xml version="1.0" encoding="utf-8"?>
<!-- Generator: Adobe Illustrator 24.2.1, SVG Export Plug-In . SVG Version: 6.00 Build 0)  -->
<svg version="1.1" id="Camada_1" xmlns="http://www.w3.org/2000/svg" xmlns:xlink="http://www.w3.org/1999/xlink" x="0px" y="0px"
	 viewBox="0 0 657.06 110.41" style="enable-background:new 0 0 657.06 110.41;" xml:space="preserve">
<style type="text/css">
	.st0{fill:#D1D1D1;}
</style>
<g>
	<path class="st0" d="M54.2,50.2L37.8,46c-3.3-0.75-6.55-1.76-9.7-3c-2.27-0.87-4.39-2.09-6.3-3.6c-1.47-1.17-2.64-2.68-3.4-4.4
		c-0.71-1.85-1.05-3.82-1-5.8c0-5.33,1.83-9.47,5.5-12.4s8.83-4.4,15.5-4.4c14.53,0,22.6,5,24.2,15c0.07,1.04,0.49,2.03,1.2,2.8
		c1.06,0.51,2.23,0.72,3.4,0.6H73c1.73,0,2.9-0.27,3.5-0.8c0.7-0.83,1.03-1.92,0.9-3c0.05-6.42-2.56-12.57-7.2-17
		C63.93,3.33,53.8,0,39.8,0C28.2,0,19.07,2.7,12.4,8.1S2.4,20.8,2.4,30v1c0,7.2,1.93,12.97,5.8,17.3s9.93,7.63,18.2,9.9l17.8,4.6
		c6.67,1.73,11.37,4.03,14.1,6.9s4.1,6.83,4.1,11.9c0,10.8-7.6,16.2-22.8,16.2c-7.6,0-13.33-1.2-17.2-3.6
		c-3.87-2.4-6.4-6.27-7.6-11.6c-0.07-1.06-0.53-2.06-1.3-2.8c-1.03-0.49-2.17-0.7-3.3-0.6H4.4c-1.74,0-2.9,0.27-3.5,0.8
		c-0.7,0.83-1.03,1.92-0.9,3c-0.04,6.71,2.8,13.12,7.8,17.6c6.93,6.53,17.67,9.8,32.2,9.8c25.47,0,38.2-10,38.2-30v-1
		C78.2,63.94,70.2,54.21,54.2,50.2z M102.37,2h-7.6c-1.16-0.12-2.33,0.15-3.32,0.78c-0.6,0.56-0.9,1.6-0.9,3.21v97.61
		c0,1.6,0.3,2.68,0.9,3.21c0.99,0.63,2.16,0.9,3.32,0.78h7.61c1.15,0.12,2.31-0.15,3.28-0.78c0.6-0.52,0.9-1.6,0.9-3.21V6
		c0-1.6-0.3-2.65-0.9-3.21C104.69,2.16,103.52,1.88,102.37,2z M171.45,2h-7.61c-1.15-0.12-2.31,0.16-3.28,0.78
		c-0.6,0.56-0.9,1.6-0.9,3.21v40.27H124.1c-1.24,0-2.24,1-2.24,2.24V58c0,1.24,1,2.24,2.24,2.24h35.57v43.36
		c0,1.6,0.3,2.68,0.9,3.21c0.97,0.62,2.13,0.9,3.28,0.78h7.61c1.16,0.12,2.33-0.15,3.32-0.78c0.6-0.52,0.89-1.6,0.89-3.21V6
		c0-1.6-0.3-2.65-0.89-3.21C173.79,2.16,172.62,1.88,171.45,2L171.45,2z M430.45,2h-7.6c-1.16-0.12-2.32,0.16-3.3,0.8
		c-0.6,0.53-0.9,1.6-0.9,3.2v70.61c0,0,1.02,20.39-21.65,20.39c-1.07,0-2-0.06-3-0.12c-6-0.5-19.07-3.14-19.07-16.67V6
		c0-1.6-0.3-2.67-0.9-3.2c-0.98-0.64-2.14-0.92-3.3-0.8h-7.6c-1.16-0.12-2.32,0.16-3.3,0.8c-0.6,0.53-0.9,1.6-0.9,3.2v74.23
		c0,13.53-13,16.17-19.07,16.67c-1,0.05-2,0.12-3,0.12c-22.63,0-21.6-20.4-21.6-20.4V6c0-1.6-0.3-2.67-0.9-3.2
		c-0.99-0.65-2.18-0.93-3.36-0.8h-7.6c-1.16-0.12-2.32,0.16-3.3,0.8c-0.6,0.53-0.9,1.6-0.9,3.2v70.61c0,11.73,2.93,20.17,8.8,25.3
		s15.47,7.7,28.8,7.7c7.87,0,14.41-1,19.6-3c3.88-1.47,7.44-3.66,10.5-6.46c3.06,2.8,6.62,4.99,10.5,6.46c5.2,2,11.73,3,19.6,3
		c13.33,0,22.93-2.57,28.8-7.7c5.87-5.13,8.8-13.57,8.8-25.3V6c0-1.6-0.3-2.67-0.9-3.2c-0.97-0.63-2.12-0.91-3.27-0.8H430.45z
		 M522.66,8.78c-7.73-4.54-16.57-6.86-25.53-6.7c-6.79-0.04-13.51,1.32-19.74,4c-6,2.54-11.42,6.29-15.93,11
		c-4.62,4.9-8.21,10.68-10.56,17c-2.65,6.93-3.98,14.31-3.9,21.73c-0.06,7.49,1.3,14.92,4,21.91c2.44,6.36,6.17,12.14,10.94,17
		c4.72,4.72,10.35,8.42,16.55,10.89c14.63,5.71,30.96,5.21,45.22-1.38c6.09-2.95,11.53-7.09,16-12.18c0.4-0.47,0.59-1.08,0.54-1.69
		c-0.05-0.66-0.35-1.27-0.85-1.7l-8-6.87c-0.42-0.37-0.96-0.57-1.52-0.57c-0.71-0.01-1.39,0.27-1.88,0.78
		c-3.17,3.38-6.89,6.19-11,8.32c-5.34,2.67-11.25,4.03-17.22,3.94c-0.59,0-1.13,0-1.7,0c-6.08-0.15-12.02-1.87-17.23-5
		c-0.35-0.18-0.69-0.39-1-0.63c-0.58-0.39-1.17-0.83-1.83-1.32c-0.46-0.37-0.92-0.74-1.31-1.09c-0.4-0.29-0.78-0.6-1.14-0.94
		c-2.53-2.33-4.7-5.02-6.42-8c-0.39-0.64-0.73-1.22-1.07-1.89c-3.23-6-4.92-12.71-4.91-19.53c-0.01-6.39,1.4-12.7,4.12-18.48
		c2-4.65,5.03-8.78,8.87-12.08c2.61-2.3,5.6-4.13,8.84-5.42c1.01-0.43,2.04-0.81,3.1-1.11c0.53-0.2,1.07-0.35,1.62-0.45
		c0.47-0.13,1-0.22,1.63-0.33c0.52-0.15,1.06-0.24,1.61-0.25H493c1.68-0.28,3.38-0.41,5.08-0.39c8.35,0,15.36,2.68,20.84,8
		s9,12.43,10.42,21.3l0.09,0.56h-46.29c-1.33,0-2.4,1.07-2.4,2.4v8.88c0,1.33,1.07,2.4,2.4,2.4h61c0.72,0.02,1.34-0.51,1.44-1.23
		c0.2-1.82,0.3-3.66,0.3-5.49c0.17-9.29-1.89-18.48-6-26.81c-3.89-7.69-9.87-14.12-17.24-18.58L522.66,8.78z M651,27.31
		c-3.87-7.65-9.81-14.07-17.14-18.53c-7.73-4.54-16.57-6.86-25.53-6.7c-6.79-0.04-13.51,1.32-19.74,4c-6,2.54-11.42,6.29-15.93,11
		c-4.62,4.9-8.21,10.68-10.56,17c-2.65,6.93-3.97,14.3-3.9,21.72c-0.06,7.49,1.3,14.92,4,21.91c2.44,6.36,6.17,12.14,10.94,17
		c4.72,4.72,10.35,8.42,16.55,10.89c14.63,5.71,30.96,5.21,45.22-1.38C641,101.26,646.44,97.1,650.9,92
		c0.4-0.47,0.59-1.08,0.54-1.69c-0.05-0.66-0.35-1.27-0.85-1.7l-8-6.87c-0.42-0.37-0.96-0.57-1.52-0.57
		c-0.7,0.01-1.36,0.3-1.84,0.81c-3.19,3.39-6.94,6.2-11.08,8.32c-5.32,2.67-11.2,4.04-17.15,3.97c-0.59,0-1.13,0-1.7,0
		c-6.08-0.15-12.01-1.87-17.22-5c-0.35-0.18-0.69-0.4-1-0.64c-0.58-0.39-1.17-0.83-1.83-1.32c-0.46-0.37-0.92-0.74-1.34-1.11
		c-0.39-0.28-0.77-0.59-1.12-0.93c-2.53-2.33-4.7-5.02-6.42-8c-0.39-0.64-0.73-1.22-1.07-1.89c-3.23-6-4.92-12.71-4.91-19.53
		c-0.01-6.39,1.4-12.7,4.12-18.48c2-4.65,5.03-8.78,8.87-12.08c2.61-2.28,5.59-4.09,8.81-5.36c1.01-0.43,2.04-0.81,3.1-1.11
		c0.53-0.2,1.07-0.35,1.62-0.45c0.47-0.13,1-0.22,1.63-0.33c0.52-0.15,1.06-0.24,1.61-0.25h0.06c1.68-0.28,3.38-0.41,5.08-0.39
		c8.35,0,15.36,2.68,20.84,8s9,12.43,10.42,21.3l0.09,0.56h-46.29c-1.33,0-2.4,1.07-2.4,2.4c0,0,0,0,0,0v8.88
		c0,1.33,1.07,2.4,2.4,2.4l0,0h61c0.72,0.02,1.34-0.51,1.44-1.23c0.2-1.82,0.3-3.66,0.3-5.49C657.24,44.89,655.15,35.66,651,27.31z
		 M280.81,26.38c-3.88-7.65-9.81-14.07-17.13-18.54c-7.74-4.54-16.57-6.86-25.54-6.71c-6.78-0.03-13.5,1.33-19.74,4
		c-6,2.54-11.43,6.29-15.93,11c-4.62,4.9-8.21,10.68-10.56,17c-2.66,6.94-3.99,14.31-3.91,21.74c-0.06,7.49,1.3,14.93,4,21.92
		c2.45,6.36,6.17,12.14,10.95,17c4.72,4.72,10.35,8.42,16.55,10.89c5.72,2.31,11.79,3.63,17.95,3.89h14.15
		c1.6,0,2.68-0.29,3.21-0.89c0.62-0.99,0.9-2.16,0.78-3.33v-7c0.12-1.15-0.16-2.31-0.78-3.29c-0.53-0.6-1.6-0.89-3.21-0.89h-14.16
		c-5.51-0.35-10.85-2.02-15.58-4.86c-0.36-0.18-0.69-0.4-1-0.66c-0.6-0.37-1.17-0.82-1.83-1.32c-0.47-0.37-0.93-0.74-1.34-1.11
		c-0.39-0.28-0.76-0.59-1.11-0.93c-2.54-2.32-4.71-5.02-6.42-8c-0.4-0.61-0.75-1.24-1.07-1.89c-3.24-6-4.93-12.71-4.92-19.53
		c0-6.39,1.4-12.7,4.12-18.48c2-4.65,5.03-8.78,8.87-12.08c2.62-2.26,5.61-4.06,8.84-5.31c1-0.45,2.04-0.82,3.09-1.13
		c0.53-0.19,1.08-0.33,1.63-0.43c0.54-0.14,1.08-0.25,1.63-0.33c0.53-0.17,1.08-0.26,1.63-0.27l0,0c1.68-0.27,3.38-0.4,5.08-0.39
		c8.36,0,15.37,2.68,20.85,8c5.48,5.32,9,12.43,10.41,21.3l0.08,0.56l0,0l0.44,8.64v49.74c0,1.6,0.3,2.68,0.9,3.21
		c0.99,0.63,2.16,0.9,3.32,0.78h7.61c1.15,0.12,2.31-0.15,3.28-0.78c0.6-0.52,0.9-1.6,0.9-3.21V54.87c0-0.2,0-0.37,0-0.56
		c0-0.37,0-0.73,0-1.11c0.16-9.29-1.9-18.49-6.02-26.82H280.81z"/>
</g>
</svg>
